<svg version="1" xmlns="http://www.w3.org/2000/svg" width="933.333" height="933.333" viewBox="0 0 700.000000 700.000000"><path d="M324 .7c-4.5.4-24.9 2.9-30.5 3.8-30.3 4.9-52.7 11.7-88.5 26.6-20 8.3-54 28.8-70.5 42.3-39.4 32.5-69 67.7-92.3 109.7C20.4 222.6 5.5 271.6 1.1 319c-.9 9.4-.7 56.7.2 62.5.3 1.6.8 6.6 1.2 11 .7 8.1 4 26.4 7.1 39.1 17.3 72.2 58.3 138.7 114.6 185.6 15.3 12.8 46.9 35.8 49.2 35.8.3 0 2.9 1.4 5.6 3.1 10.1 6.2 43.2 20.5 61.5 26.4 36.5 12 70.8 17.3 110.5 17.3 18.1-.1 24.7-.4 40.5-2.2 3.8-.4 15.2-2.2 20.5-3.1 1.4-.3 6.4-1.2 11.1-2 25.2-4.4 75.2-23.2 100-37.5 11.9-6.9 35-22.4 42.4-28.4 19.9-16.4 42.8-39.3 57.1-57.1 37.1-46.3 60.9-98.5 72.2-158.5 5.9-31.2 6.6-75.6 1.8-111.5-4.6-34.1-18.3-76.8-34.6-108.2-27.9-53.6-62.8-93.5-113-129.4-20.7-14.8-33.6-22-59.1-32.8-27.3-11.6-45.2-17.1-77.2-23.6-5.2-1.1-21.9-3.2-34.3-4.4-8.5-.8-45-1.1-54.4-.4zm33.5 4.2c-.6.5-9.8 1.2-20.5 1.5-10.7.3-20.4.8-21.5 1-3.5.7-22 1.8-21.5 1.3.3-.3 3-.8 6-1.1 3-.3 9.1-1.1 13.5-1.6 15.7-1.9 45.6-2.7 44-1.1zm5.5.1c0 .5-.5 1-1.1 1-.5 0-.7-.5-.4-1 .3-.6.8-1 1.1-1 .2 0 .4.4.4 1zm18.5.5c12.6 1.1 23 2.7 24 3.7.7.7.7.9 0 .6-.5-.3-4.4-.9-8.5-1.2-4.1-.4-8.8-.9-10.5-1.1-1.6-.2-6.1-.4-10-.6-7.5-.2-9.5-.6-9.5-2 0-.4 1.9-.6 4.3-.4 2.3.2 6.9.7 10.2 1zm-26.7 5.8c.2.9 0 1.7-.5 1.8-.4.1-3.5.2-6.8.4-12.4.7-21.2 1.6-27 2.8-5.9 1.2-6.3 1.2-12-1.5-4.7-2.1-5.5-2.7-3.5-2.8 1.4-.1 3.6-.3 5-.5s8.1-.6 15-1 12.6-.8 12.7-.9c.1 0 3.9-.1 8.5 0 6.9 0 8.4.3 8.6 1.7zm10.2.8c0 1.4-.7 1.9-2.8 1.9-3.6 0-4.4-.8-3.2-3 1.3-2.4 6-1.5 6 1.1zm25-.6c2.5.2 7.2.7 10.5 1 15.9 1.5 18.4 2.5 10.1 4.2-3.8.8-8.3 2-10 2.7-2.6 1-4.3.9-12-1.1-4.9-1.3-11.3-2.6-14.1-2.9-4.6-.6-5.4-1-5.8-3.1l-.4-2.4 8.6.6c4.7.3 10.6.7 13.1 1zM302.3 16c3.3 1.2 5.5 2.5 5 2.9-.4.4-3.3 1.5-6.3 2.6-6.5 2.1-14.8 6.1-17.1 8.2-.9.8-2.5 1.4-3.5 1.4-1.1.1-9.3 0-18.4 0-9.1 0-18 .1-19.8.3-2.9.3-3.1.2-2-1.3 6.3-8 12.3-10.4 35.3-14.2 18.2-3 18.4-3 26.8.1zm50.2 5.2c-.4 2.4-.9 5.9-1.2 7.8-.7 4.4-1.3 4.8-8.4 4.8-5.1-.1-6.4-.5-9.6-3.3-2.1-1.7-6.2-4.8-9.1-6.7-6.1-4.1-6-4.2 5.8-5.4 3.6-.3 6.6-.7 6.7-.8.1-.1 3.9-.3 8.4-.5l8.2-.2-.8 4.3zm12.7-3.3c.8.1 1.5 3.5 2.3 10.9l.6 5.3-6.8-.4-6.8-.3.3-2.9c.1-1.7.7-5.3 1.3-8.1 1-5 1-5 4.7-4.8 2 .1 4 .2 4.4.3zm80.2 2.3c9.7 2.6 27.7 11.6 36.8 18.3 3.6 2.8 6.5 5.1 6.4 5.3-.2.1-3.2-.4-6.7-1.2-3.5-.8-8.2-1.7-10.4-2-2.2-.4-5.3-.8-7-1.1-5.8-.8-13.1-1.4-25.9-2.1l-13-.7-4.9-3.9c-2.7-2.1-7.9-5.3-11.6-7l-6.6-3.2 4.5-1.3c5.9-1.7 9.2-2.4 16.5-3.2 7.8-.9 12.2-.5 21.9 2.1zm-63 .4l8.9 1.7-9.8 4.9c-5.4 2.7-9.9 4.7-10 4.6-.1-.2-.6-3.3-.9-7-.7-6.1-.6-6.6 1.1-6.3 1 .2 5.8 1.1 10.7 2.1zM324 28l8.4 6h-3.9c-2.2.1-7.4.3-11.6.6-4.7.3-11.8-.1-18.3-1-5.9-.9-11-1.6-11.4-1.6-3.6-.2 21.2-9.9 25.3-9.9 2 0 5.7 1.9 11.5 5.9zm82.4.4c3.9 1.9 8.7 4.7 10.6 6.1l3.5 2.7-9.5-.6c-5.2-.3-13.1-.9-17.5-1.3-4.4-.3-9.9-.7-12.2-.7-2.4-.1-4.3-.4-4.3-.8s2.6-1.9 5.8-3.3c3.1-1.4 7.1-3.2 8.7-4 4.5-2.2 7.1-1.8 14.9 1.9zm-170.7 1.4c-2.3 2.4-8.7 4.4-8.7 2.7 0-.6 9.1-5.4 10.4-5.5.6 0-.2 1.3-1.7 2.8zm-9.7-1.4c0 1.6-11 6.9-17.5 8.5-4.4 1-9.2 2.4-10.7 3-4.6 1.7-3.2.3 2-2.1 11.3-5.3 26.2-10.6 26.2-9.4zm257.2 5.1c3.2 2.2 5.7 4.3 5.8 4.7 0 .7-11.9-7.1-14.5-9.4-2.4-2.2 3.5 1 8.7 4.7zm25.3 8.5c13.4 6.8 29.4 16.3 33.6 20 2.2 1.9 1.9 1.9-2.6-.3-7.9-3.9-21.4-9.3-28.5-11.5-5.6-1.7-7.6-3-14.2-9.5-9.1-9-8.2-8.9 11.7 1.3zm-233.1-6.9c1.2 1.1-3 3.7-6.9 4.3-9.4 1.5-21.8 3.7-30.5 5.6-5.1 1.1-9.5 1.9-9.7 1.7-.6-.7 5.6-9.6 7.4-10.5 1-.5 4.1-1 6.8-1.1 2.8-.2 5.1-.4 5.3-.5.5-.6 27.1-.1 27.6.5zm16.5 1.5c.2.2-1.2.4-3.1.4-2 0-5.1.3-6.9.6-3.2.5-3.3.5-1.5-1 1.5-1.2 3.2-1.4 6.5-1 2.5.3 4.8.8 5 1zm-65.8 6.2l-3.9 5.8-9.3 2.3c-5.2 1.4-10.1 2.6-10.9 2.9-1.9.6 6.1-7.8 11.3-12 3.5-2.8 13.9-6.2 15.9-5.1.4.2-1 2.9-3.1 6.1zm113.7-2.1l3.3 3-9.4-2.6c-5.3-1.4-9.1-2.8-8.7-3.1.5-.3 3.2-.5 6.2-.5 4.5.1 5.8.6 8.6 3.2zm9.5-.5c-.3 1.8-.7 3.4-.8 3.5-.1.2-1.7-1.3-3.5-3.2l-3.4-3.5h4.2c4.1 0 4.1 0 3.5 3.2zm12.7-2.7c0 .5-8.6 6.5-9.3 6.5-.5 0 0-2.8.9-5.8.3-1.1 8.4-1.9 8.4-.7zm27.5.7c.7-.3.7-.1 0 .5-.5.6-3.9 1.4-7.5 1.7-3.6.4-7.3.9-8.2 1.2-1.4.4-1.8 0-1.8-1.8 0-2.3.1-2.3 8.3-1.7 4.5.4 8.7.4 9.2.1zM323 42c6.9 1.7 12.8 3.4 13.2 3.8.4.4-3 .7-7.5.8-8.9 0-28.6 1.2-32.7 1.9-1.4.2-5.6.7-9.5 1-3.8.3-7.7.7-8.5 1-.8.2-3.2.6-5.2.9-3.6.6-3.7.5-2.8-1.9 2.8-7.3 3.6-7.7 19.5-9.1 3.9-.4 7.1-.7 7.2-.8.1-.1 3.3-.3 7-.4 4.9-.2 10.2.6 19.3 2.8zm45.6-1.3c-.3 1.6-2.9 2.9-6.3 3.2-2.2.2-1.4-1.3 1.5-3.1 3.6-2.1 5.1-2.2 4.8-.1zM494 42.5c1.9 1.9 3.2 3.5 2.9 3.5-.3 0-2-1.6-3.9-3.5s-3.2-3.5-2.9-3.5c.3 0 2 1.6 3.9 3.5zm-290.1 3.2c-3 3.2-6.2 6.8-7 8-1 1.5-5.4 3.6-12.5 6.2-16.2 5.9-27.9 10.7-37.1 15.5-9.5 4.9-9.5 3.8-.1-4.9 12.3-11.3 25.5-18.4 48.3-26.1 7.2-2.4 13.2-4.3 13.4-4.4.2 0-2 2.6-5 5.7zm217.6-4.2c3.6.6 4.9 1.3 6.4 3.9 2 3.2 4.3 11.1 3.4 11.9-.2.3-2.8-.1-5.6-.9-2.9-.7-6.8-1.6-8.7-1.9-19.6-3.4-26.9-4.6-31.9-5.1-3.3-.3-6.8-.7-7.8-.9-1-.2-2.4-.4-3-.4-.7-.1-1.3-.7-1.3-1.5 0-1.5 3.4-2.2 22-4.1 3.6-.4 6.6-.8 6.7-.9.7-.6 16-.6 19.8-.1zm27.2.1c-.3.3-1.2.4-1.9.1-.8-.3-.5-.6.6-.6 1.1-.1 1.7.2 1.3.5zm24.8 3c15.2 2.6 21.2 4.4 23.7 7.1 2.1 2.4 2.1 2.5.3 2-8.3-2.4-27.9-7.3-37-9.3l-11-2.4 7.5.5c4.1.3 11.5 1.2 16.5 2.1zM267 47.7c-1.6 4.3-2.2 4.9-5.6 5.6-10 2.1-29.5 7-35.3 8.7-3.5 1.1-6.5 2-6.7 2-.3 0 5.2-11.8 6-12.7.1-.1 1.3-.4 2.6-.7 1.4-.2 8.1-1.6 15-3 6.9-1.5 14.8-2.9 17.5-3.2 2.8-.4 5.2-.8 5.4-1 .2-.2 1-.4 1.7-.4.9 0 .7 1.3-.6 4.7zM438.1 44c3 .5 6.6 1.1 8.1 1.4 13.1 2.2 30.9 6.4 46 10.7l10.8 3.2 2.5 5.2c2.8 6 4.4 12.4 4.5 17.7v3.6l-11.7-5.3c-14.6-6.5-36.1-14.3-51.4-18.6l-11.7-3.2-.5-4.8c-.3-2.6-1.3-6.2-2.2-7.8-1.8-3.5-1.8-3.5 5.6-2.1zM369 46.8c0 .4-1 .9-2.2.9-1.8.2-2 0-.8-.7 1.8-1.2 3-1.3 3-.2zm-46.5 7.6c-14 4.6-27.7 9.9-39.4 15.3-8.2 3.7-8.9 3.6-12-2.6-2.2-4.3-3.2-9.3-2.3-10.6.8-1.1 2-1.5 7.6-2 2.3-.3 5.4-.7 6.9-1.1 5-1.1 30.8-3.1 41.7-3.2l10.5-.1-13 4.3zM369 52c0 1.3-1.1 1.3-3 0-1.2-.8-1.1-1 .8-1 1.2 0 2.2.4 2.2 1zm-31.5 3.7c-2.2 2-8.7 7.9-14.4 13.2-5.8 5.3-11.2 9.6-12 9.7-11.7.8-21.2 1.5-23.8 1.9-3 .4-8.3-2.4-8.3-4.4 0-1.5 27-12.5 44.7-18.2 7-2.2 13.7-4.4 14.8-4.9 3.3-1.4 3.2-1.1-1 2.7zm28.3 13.2c2.8 3.6 5.2 7 5.2 7.6 0 .7-3.8 1.1-11.2 1-6.4-.1-11.3-.5-11.3-1 0-.6.5-4.6 1-9s.9-8.8 1.1-9.8c.1-.9.2-2.7.3-3.9.1-1.9.8-1.4 4.9 3.1 2.6 3 7.1 8.4 10 12zm4.4-8c.7 7.3-.1 7.3-6.1.3-7.9-9.3-7.9-9.3-.7-6.5 6.1 2.4 6.4 2.7 6.8 6.2zm26.2-6.3c5.6.8 10.8 1.6 11.6 1.9.8.2 2.9.7 4.5.9 9.1 1.6 18.5 4 18.5 4.8 0 2-4.3 9-7.5 12.3-2 1.9-3.7 3.5-3.8 3.5-.1 0-6.4-3.3-14-7.4-7.6-4-18.1-9.3-23.2-11.6-5.8-2.6-9.5-4.9-9.5-5.8 0-1.6 5.4-1.3 23.4 1.4zm-176.6-.8c-.1.4-1.4 3.2-2.6 6.2l-2.4 5.5-11.1 4c-6.2 2.2-11.5 4.1-11.9 4.3-1.5.7-.8-2.1 2.2-8.3l3-6.2 10.2-3.1c10.9-3.2 13.2-3.7 12.6-2.4zM347 57.7c-.5 2.7-1.1 7.9-1.5 11.8-.3 3.8-.8 7.2-1.1 7.4-.2.3-6.2.6-13.2.8l-12.7.3 6.5-6.1c7.8-7.3 21.3-18.8 22.1-18.9.3 0 .3 2.1-.1 4.7zm169-2c12.5 4.3 37.8 16.8 42.9 21.2 3.5 3 2.3 2.7-8.6-2.7-5.4-2.6-15.9-7.1-23.3-10-16.2-6.4-15.9-6.2-17.9-9.2-1.5-2.3-1.5-2.4.4-1.6 1.1.4 4 1.5 6.5 2.3zm-251 3c0 3.4 2 9.1 4.5 12.7l2.4 3.6-9.7 4.9c-9.5 4.7-11.5 5.4-19.6 6.6-4 .6-25 4.8-30 6.1-2.6.6-2.7.5-2-2.2.3-1.6 2-7.2 3.8-12.4l3.1-9.4 5.4-1.9c5.3-1.8 24.3-6.7 33.1-8.5 7.1-1.5 9-1.4 9 .5zm130 10.4c7.4 3.8 15.3 8 17.5 9.4l4 2.5-4-.5c-4.9-.6-13-1.2-25.5-2-11.7-.8-12.7-1.7-13.2-11.8-.2-3.8-.2-7 0-7.2.6-.5 7 2.4 21.2 9.6zm-205-3.5c-1.1 2.5-2.2 5.6-2.4 6.9-.6 3-1.4 4.5-2.6 4.5-3.5 0-36 17.4-51.7 27.6-6.2 4-11.3 7.2-11.3 7.1 0-.1.7-2.4 1.5-5 2.2-7.4 7.5-17.6 10.2-19.7 6.1-4.8 32.6-17 49.8-23.1 4.4-1.5 8.1-2.8 8.2-2.8.1-.1-.7 2-1.7 4.5zm322.6 1.6c4 6.6 12.6 24.9 11.9 25.6-.2.2-2.7-.9-5.6-2.5-5.2-2.9-5.2-2.9-5.5-8.2-.3-7.2-1.2-11.4-3.4-16.6-1.1-2.5-1.8-4.5-1.5-4.5.2 0 2 2.8 4.1 6.2zm-50.4 3.2c12.1 3.9 26.9 9.8 38.7 15.1l8.3 3.9-.6 3.4c-.3 1.9-.8 3.7-1.1 4-.3.3-6.5-.8-13.8-2.6-7.3-1.8-14.1-3.4-15.2-3.6-1.1-.2-6.5-1.3-12-2.4-5.5-1.1-12.2-2.4-15-2.7-2.7-.4-5.9-.9-7-1.1-1.1-.2-5.9-.9-10.6-1.5-11.6-1.5-12-1.9-7.4-6.5 2.1-2.2 4.8-6.2 6.2-9l2.3-5.1 8.5 2.3c4.6 1.3 13 3.9 18.7 5.8zm75.8 2.1c8.7 3.6 25.3 12.2 28.3 14.5 3.2 2.5 9.3 15.2 11.2 23.2 1.4 5.9 2 13.8 1.1 13.8-.4 0-12.2-5.6-14.6-6.9-2.6-1.5-30.4-18.9-32.6-20.5-1.2-.8-2.5-2.8-2.9-4.3-.5-2.1-9.5-21.4-13.3-28.5-.3-.6 10.2 3.4 22.8 8.7zm-325-2.3c0 .2-1.8 5.7-3.9 12.3l-3.8 12-4.9 1.2c-8.1 1.9-8.1 1.8-9.3-3.7-.6-2.8-1.1-7-1.1-9.3v-4.2l7.7-3C212 70 213 69.6 213 70.2zm64 9.3c1.5 1.8.8 2.1-7 2.9l-5.5.6 4.5-2.5c5.3-2.9 6.3-3 8-1zM131.5 83c-1 1.1-3.4 2.9-5.4 4-3.2 1.9-3.1 1.6 1.4-2.4 5-4.4 7.4-5.4 4-1.6zm55 1c-.1 2.2.5 6.3 1.2 9.1.7 2.9 1.2 5.3 1.1 5.4-.2.1-7 2.3-15.3 4.9-15.8 5.1-36.1 12.9-45.7 17.7-3.2 1.6-6 2.9-6.3 2.9-.3 0-.5-1.6-.5-3.5 0-3.2.5-3.8 11.3-10.9C149.1 98.4 173.6 85 185 80.7c.8-.3 1.5-.6 1.6-.6 0-.1 0 1.7-.1 3.9zm157.1 1.7c-.2 2.6-.5 6.3-.5 8.2l-.1 3.4-7.7-.7c-8.6-.7-26.3-4.2-27.5-5.4-.8-.8 5.9-8.6 8-9.3.7-.2 7.3-.6 14.8-.7l13.5-.4-.5 4.9zm27.5-1c0 2.1.2 5.1.3 6.6.1 1.5-.1 3.3-.5 3.9-.4.6-5.6 1.3-12.8 1.6l-12 .5.5-4.4c.8-7.1 1.3-11.4 1.3-11.7.1-.1 5.3-.2 11.6-.2H371l.1 3.7zm22.4-2.2c6.6.4 12.8.7 13.8.7 1-.1 1.7.4 1.5 1-.5 1.3-13.7 6.8-18.3 7.5-3 .5-3.5.1-6.2-3.8-4-6-4.8-7.3-3.7-6.7.5.3 6.3.9 12.9 1.3zm-84.5.4c0 .3-1.5 2-3.3 3.8l-3.2 3.1-6.2-2.6c-3.5-1.4-6.1-2.8-5.8-3 1-1.1 18.5-2.3 18.5-1.3zm71.2 5.2l3.7 5.4-4 .9c-2.2.5-4.1.7-4.3.5-1-1-1.1-12.9-.2-12.6.5.2 2.7 2.8 4.8 5.8zm-85.5 2.3l5.4 2.2-6.2 7.5c-7.5 8.9-25.2 32.5-29.4 39.1-3.3 5.2-4.3 5.7-11.2 5.4-7.8-.3-29.5-11.7-41.4-21.8l-4.8-4 5.7-4.2c8.3-6.1 24.5-16.6 33.7-21.9 8.2-4.7 12.3-5.7 28.6-7.3 3.5-.3 6.6-.8 6.8-1 .2-.2 2 .5 3.9 1.6 1.9 1.2 5.9 3.1 8.9 4.4zm140 1.7c15 9.9 46.3 34.2 46.3 35.9 0 .9-11.2 7.4-20.5 12-9.7 4.7-12.6 5.2-24.5 3.7-3.6-.5-8.7-1.1-11.5-1.3-2.7-.3-5.8-.6-6.8-.8-1-.1-2.7-2-3.8-4.2-6-11.2-13.6-24.5-18.4-32.2-2.9-4.8-5.1-9-4.7-9.3.4-.4 3.3-1.5 6.5-2.4 3.3-1 9.1-3.5 13-5.5 9.3-4.7 11.6-4.3 24.4 4.1zm15.8-3.1c14.9 2.4 27.3 4.9 43.3 8.7 8.3 2 11.2 3.1 11.2 4.3 0 2.3-9.9 14.8-15.5 19.6l-5 4.2-4.5-3.9c-7.4-6.6-23.8-19.2-35.5-27.4-12.9-9-12.7-8.8-9.5-8.1 1.4.3 8.4 1.5 15.5 2.6zm-215.4 6.3c-4.6 2.8-13 8.5-18.7 12.4-5.7 4-10.5 7.3-10.8 7.3-.9 0 2.3-16 3.4-17.3.8-.9 18.3-5.1 26-6.2 2.5-.4 4.7-.9 4.9-1.1.2-.2 1.1-.4 2-.4.9 0-2.2 2.4-6.8 5.3zm-112.5 3.3c-1.3 3.2-3 8.3-3.7 11.3-1.2 4.9-2 5.9-8.4 10.9-3.8 3.1-7.2 5.8-7.5 6.2-.3.3-2.1 1.8-4 3.4-1.9 1.5-5.6 4.8-8.2 7.3-2.7 2.4-4.8 4.1-4.8 3.7 0-.4 1.6-3.7 3.6-7.3 10.7-19.5 19.8-31.5 28.4-37.4 3.6-2.5 6.6-4.4 6.7-4.3.2.2-.8 2.9-2.1 6.2zm398.1-3.4c4.5 2.4 6.5 4.1 7.3 6.2.8 2.5.8 2.7-.8 2.1-.9-.3-5-1.6-8.9-2.8-4-1.1-7.3-2.4-7.3-2.8 0-1.6 2-5.9 2.7-5.9.4 0 3.5 1.5 7 3.2zm62.1 2.2c4.3 3 10.4 7.7 13.7 10.6 13.5 11.4 29.4 32.9 33.9 45.8l1.5 4.3-8.2-6.4c-11.1-8.6-30.1-20.6-37.4-23.6-1.8-.7-3.3-2.1-3.4-3-.3-11.1-3.7-25.1-7.5-30.9-.8-1.2-1.2-2.2-.8-2.2.3 0 4 2.4 8.2 5.4zm-270.3-1c3.3.8 7.6 1.7 9.5 2 6.1 1 12.4 1.7 16 2 3.4.3 3.5.3 3.4 4.7-.2 8.7-2.3 32.1-3 32.8-.2.2-4.3.5-9.1.7-14.9.5-41.5 2.1-46.8 2.9-1.6.3-5.7.7-9 1.1-3.3.3-6.4.8-6.9 1.2-2.5 1.5 11.5-18.3 23.7-33.5C303.4 93.8 303.2 94 305 94.5c.8.2 4.2 1.1 7.5 1.9zm77.9 7.4c5.4 8.2 20.6 35.3 20.6 36.6 0 .5-2.1.6-4.7.2-2.7-.3-10.4-.9-17.3-1.2-6.9-.4-12.6-.8-12.8-.9-.1-.1-.4-9-.7-19.8l-.4-19.6 4.2-.9c2.3-.6 4.8-1 5.5-1.1.7-.1 3.2 3 5.6 6.7zm-186.9.7c-.6 3.6-1.4 6.8-1.7 7.1-.5.4-4.5-4.8-7.2-9.3-.4-.8.9-1.7 4.1-2.7 2.6-.8 5.1-1.5 5.4-1.5.4-.1.1 2.8-.6 6.4zm168.1.3c.3 4.8.6 25.3.5 30.8l-.1 3-14.2-.3c-7.9-.1-14.6-.3-15-.3-.4 0-.6-.6-.3-1.3.2-.6.6-4.8.9-9.2.4-4.4.9-10.7 1.2-14 .3-3.3.7-7.2.8-8.8.2-1.5.5-2.9.7-3.1.2-.2 5.5-.7 11.8-1 6.3-.4 11.7-.8 11.9-1.1 1-1 1.6.7 1.8 5.3zm-176.1 5c2.8 4.2 5.1 8 5.3 8.3.2.4-2.5 2.9-6 5.5-10.5 8.1-28.6 24.4-41 36.9-13.6 13.6-12.2 13.5-20.2 1.6-7.2-10.8-10.8-19.4-12.1-29.2l-.7-4.6 6.9-3.2c11.9-5.8 28.3-12.2 44.8-17.7 8.8-2.9 16.5-5.3 17-5.3.6 0 3.3 3.4 6 7.7zm327.5-3.9l7.5 2.6 2.6 10.5c1.5 5.8 2.9 11.8 3.2 13.5.3 1.6 1 5.7 1.5 9 1.7 9.4 2.3 13.6 2.8 19.6l.4 5.6-10.5-3.1-10.5-3.2-14.3-14.2c-7.8-7.8-15.2-15-16.3-15.9-2.1-1.7-2.1-1.7 5.1-8.7 6.7-6.7 12.4-13.9 13.8-17.8.8-2.1 3.7-1.7 14.7 2.1zm15.9-.4c3.4 2 6.1 3.7 6.1 3.9 0 .2-2.7-.6-5.9-1.8-3.7-1.3-6.2-2.7-6.4-3.8-.3-1-.4-1.8-.2-1.8s3.1 1.6 6.4 3.5zm11.6 10.2c7.8 3.2 13.6 6.4 19.7 11 4.9 3.6 8.6 6.8 8.3 7.2-.2.4-.7 2.2-1 3.9-1.5 8.6-8.3 21.7-15.8 30.6l-3.7 4.5-6.3-2.2c-3.4-1.2-6.3-2.2-6.4-2.2-.1-.1-.5-2.6-.9-5.6-1.3-12.2-3.6-25.7-6-36.7-1.5-6.4-2.9-12.8-3.1-14.1-.7-2.8-.7-2.8 15.2 3.6zm-457.6 5.5c-2.8 4.6-7.3 13-10.1 18.8-4.2 8.7-5.9 11.1-9.9 14.2l-4.8 3.7 1.3-3.7c2.3-6.5 7.7-16.5 11.9-22.2 3.7-5 15.8-19 16.4-19 .1 0-2.1 3.7-4.8 8.2zm24.6 1.7c.1 2.7-.8 3.4-11 9-6.3 3.5-9.7 5-8 3.5 2.3-2 18.8-15.4 19-15.4v2.9zM224 135.7c3.6 2.1 9.7 5.4 13.5 7.3 5.8 2.8 6.6 3.5 4.5 3.8-3.1.4-36.7 7-39.7 7.8-2 .6-2.1.3-1.7-3.8.8-9 2.5-23.5 3-25.8.1-.8.3-2.1.3-2.8.1-.7 3.1 1.2 6.9 4.1 3.7 3 9.6 7.2 13.2 9.4zm-24.5-7.5c-.3 2.4-.8 5.7-1 7.3-.2 1.7-.7 6.8-1 11.5-.4 4.7-.9 8.6-1 8.8-.1.1-6 1.8-13.1 3.8-7.1 1.9-17.4 5-22.9 6.8-5.5 1.9-10.1 3.3-10.3 3.1-.5-.4 22.8-22.9 31.3-30.2 10-8.6 17.9-15.2 18.2-15.3.2 0 0 1.9-.2 4.2zm402 12.6c8.8 5.3 20.5 13.5 25.6 18 1.4 1.2 3.3 2.8 4.3 3.5.9.6 1.9 2.3 2.2 3.7 1 4.7 1.6 17 .7 17-.4-.1-2.6-2.4-4.8-5.2-5-6.5-30.8-32.6-39.7-40.3-3.8-3.2-6.8-6.2-6.8-6.7 0-.9 3.5.9 18.5 10zm-482.7-3.1c1.7 8.7 7.5 21 14.1 29.7 2.9 3.7 5.1 6.9 4.9 7-.2.1-4.6 2-9.8 4.1-15.7 6.3-40.4 19.1-51.7 26.7-2.3 1.5-4.4 2.8-4.6 2.8-.3 0-1.3-2.4-2.3-5.2-1.5-4.5-1.5-6-.5-11.1 1.8-8.5 5.7-22 9.3-31.5l3.1-8.3 8.3-5.5C99 140.1 115 131 116.5 131c.6 0 1.6 3 2.3 6.7zm367.1-5.8c2.2 1.4 26.1 25.4 25.7 25.8-.2.2-3.2-.3-6.7-1.2-9.7-2.6-34.3-7.7-43.8-9.2l-5.4-.8 9.4-4.9c5.1-2.7 11.4-6.2 13.9-7.7 5.1-3.2 5-3.2 6.9-2zM606 158c7.5 7.4 16.8 17.4 20.8 22.2 6.3 7.4 7.2 9 6.7 11.6-.7 4.4-4.5 16.2-5.1 16.2-.3 0-1.8-.8-3.2-1.9-9.9-7-34.5-19.8-52.2-27.1-5.8-2.4-10.6-4.5-10.8-4.6-.2-.1 2-3.2 4.7-6.8 5.5-7.2 12.5-20.9 13.6-26.6.4-1.9.9-3.9 1.2-4.3.7-1.2 9.6 6.6 24.3 21.3zm-267.6-12.3c-.2 2.1-.6 5.8-.8 8.3-.2 2.5-.5 5.3-.5 6.3-.1 1.5-.9 1.7-6.3 1.2-15.5-1.3-19-1.7-20.6-2-.9-.1-3.9-.6-6.7-.9-17-2.3-42.6-9-40.8-10.6.8-.8 3.3-1.2 17.8-2.6 3.3-.3 7.6-.8 9.5-1 1.9-.2 8.7-.6 15-1 6.3-.4 11.6-.7 11.7-.8.1-.1 5.1-.3 11.1-.4l10.9-.3-.3 3.8zm33.7-2c.5 9.3.4 16-.3 16.9-.5.7-6.3 1.2-15.9 1.3l-15.2.2.6-8.8c.4-4.8.7-9.4.7-10.1 0-.9 3.7-1.2 15-1.2 13.6 0 15 .2 15.1 1.7zm25.4-.2c6.1.3 11.9.8 13 1 1.1.2 2.3.4 2.7.4.8.1 5.2 9.1 4.6 9.6-.6.7-28.5 5.4-35.5 6l-6.3.6v-18.9l5.3.3c2.8.2 10.2.6 16.2 1zm33 3.1c3.9.4 7.5.7 8.2.7 2.7.1 0 1.4-7 3.6-4.1 1.3-8.2 2.1-9 1.8-1.2-.5-4.7-6-4.7-7.4 0-.3 1.2-.2 2.8.1 1.5.3 5.9.8 9.7 1.2zm-176.1 3.7c1.7 1.2 1.3 2.2-5.9 14.2-8.8 14.8-18.3 32.2-24.4 44.8-2.3 4.8-4.6 8.7-5.2 8.7-1.5 0-17.3-6.2-18.8-7.4-1.1-.8-1.2-5.7-.9-25.8.2-13.6.7-25 1.1-25.4.7-.7 13.9-3.9 20.1-4.8 2.1-.4 4.1-.8 4.5-1 .3-.2 2.4-.7 4.6-1 2.2-.4 5.4-.9 7-1.2 4.1-.8 12.6-2.1 14.6-2.3.8 0 2.3.5 3.3 1.2zm204.2.2c13.4 2.2 21.7 3.9 41.4 8.6 9.1 2.2 17 4.3 17.5 4.7 1.4 1 15.4 16.9 18.9 21.5 1.7 2.3 2.5 4.1 2 4.5-17.1 11.7-36.1 21-58.4 28.7l-9.5 3.3-10.3-1.8c-5.7-1-10.4-1.9-10.6-2.1-.1-.2-1.7-4.2-3.5-8.9s-3.6-9.4-4.1-10.5c-.5-1.1-3.7-8.5-7.1-16.5-3.4-8-7.2-16.7-8.6-19.4-1.4-2.7-2.1-5.2-1.6-5.6.4-.3 4.2-1.6 8.4-2.8 4.1-1.2 9.1-2.8 11-3.7 3.2-1.4 5.4-1.4 14.5 0zm-393.5 6c-1.3 4.4-2.8 6.7-7.5 11.3l-5.9 5.7 3.6-5.7c4.8-7.5 10.9-16.8 11.2-16.8.1 0-.5 2.5-1.4 5.5zm228.4 3.9c15.2 2.8 29.1 4.4 39.1 4.6h4.2l-.4 4.7c-.9 14-1.4 20.8-2 30.3-.3 5.8-.7 10.6-.9 10.8-.1.1-4.4.4-9.6.7-21 .9-37.4 2.1-42.9 3-1.4.2-5.4.7-9 1.1-3.6.3-7.6.8-9 1-1.4.2-4.7.6-7.5.9-2.7.3-9.6 1.4-15.2 2.3-7.7 1.3-11.1 1.5-13.8.7l-3.5-1 3.6-7.5c6-12.2 17.1-32.6 25.5-46.6l7.9-13.1 10.2 2.9c5.7 1.6 16.2 3.9 23.3 5.2zm131.4 7.8c2.7 5.7 6.5 14.3 8.5 19.3 2 4.9 4.1 9.9 4.6 11 1.9 4.1 7 17.6 7 18.6 0 .6-.3.8-.7.6-.5-.3-3.7-.8-7.3-1.2-3.6-.4-7.2-.8-8-1-.8-.1-5.1-.6-9.4-1-4.3-.4-8.6-.8-9.5-1-1.6-.3-22.3-1.6-30.1-1.9l-3.5-.1-.3-23.3c-.2-18.1 0-23.3 1-23.6.7-.2 6-.9 11.8-1.6 5.8-.6 14.6-2 19.5-3 5-1 9.6-1.8 10.3-1.9.7 0 3.5 4.5 6.1 10.1zm-229.2 16.2c-.2 28.1 1.3 25.7-12.2 18.6-11.4-6-26-15.8-32.9-22.1l-5.9-5.4 14.4-4.8c14.2-4.7 33.3-10.4 35.6-10.6.9-.1 1.1 6 1 24.3zm448.8-17.2c2.7 4.6 3.1 5.8 1.5 4.3-2.1-1.9-7.7-12-6-11 .4.2 2.4 3.3 4.5 6.7zm-572.2-1.5c-.8 2.7-2.4 7.9-3.5 11.8-3 10.4-4.1 10.5-3.5.3.4-8 .7-8.9 3.8-12.7 1.9-2.2 3.7-4.1 4.1-4.1.3 0-.1 2.1-.9 4.7zm299.7.4c.3.4.5 10.6.5 22.6l-.2 21.8-17.6.3-17.6.2.4-4.2c.2-2.4.7-9.3 1.1-15.3.4-6.1.8-12.4.9-14 .2-1.7.3-5 .4-7.5l.1-4.5 15.7-.2c8.7-.1 16 .3 16.3.8zm167.3 4.1c2.5 1 2.7 1.5 2.8 6.7 0 3.1.2 6.4.4 7.4.6 3-1 1.6-9.8-8.9l-8.4-10 6.1 1.9c3.3 1 7.3 2.3 8.9 2.9zm105 10.3c1.9 4.9 4.7 13 6.1 18 1.5 4.9 2.9 9.7 3.2 10.5.7 2.2-.3.8-8.3-10.6l-7.1-10v-9.8c0-11.8.9-11.5 6.1 1.9zm-589.6-2.8c-6.5 8.6-11.8 16.8-17.6 26.8-2.8 4.9-5.1 8.6-5.1 8.1 0-2 8.6-18.1 12.9-24.2 4.6-6.6 12.8-16.4 13.7-16.4.2 0-1.6 2.6-3.9 5.7zm496.1 2c-2.3 2.3-4.3 4.2-4.4 4-.1-.1-.4-2.7-.7-5.8l-.6-5.7 4.9 1.6 5 1.6-4.2 4.3zm-489 1.5c.1 3.5.7 8.6 1.3 11.4 1.5 7.6-1 21.9-4.4 24.8-1.4 1.1-4.9 4.1-7.8 6.6-7.1 5.9-15.5 14.3-20.7 20.5l-4.1 5 .2-8.8c.3-8.5.5-9.2 6.2-20.4 5.9-11.8 16.6-29.2 24.3-39.6 2.3-3.1 4.4-5.7 4.5-5.7.1 0 .3 2.8.5 6.2zm503.5-1.7c3.4 1.4 7.5 3.1 9.2 3.8 8.4 3.4 37 18.3 44.1 22.9 9.5 6.2 9.5 5.3 1.3 17.5-5.1 7.6-22.3 25.7-28.5 30.1l-3.2 2.2-5.2-9.3c-6.8-11.9-20.3-32.5-29.1-44.3-9.3-12.6-9.3-12.8-2.2-18.9 3.2-2.7 6-5.3 6.1-5.7.5-1.1.5-1.1 7.5 1.7zM164.7 196c5.6 3.7 14.9 9.1 20.7 12l10.4 5.2.4 7c.2 3.9.1 7.4-.3 7.9-.3.5-6.3 2.5-13.5 4.4-21.4 5.9-45.8 14.5-61.2 21.6-3.5 1.6-6.8 2.9-7.3 2.9-1.2 0-14.4-10.6-17.3-13.8-1.8-2.1-1.7-2.2 1.7-7.9 8.2-13.4 29.6-41.8 40-53l4-4.2 6.1 5.5c3.3 3.1 10.7 8.6 16.3 12.4zm-30.8-14.3c-1.3 1.5-2.6 3-2.9 3.3-4.2 3.9-27.3 35.2-34.6 46.7-2.1 3.5-4.2 6.3-4.7 6.3-1.1 0-9.6-11.2-14.5-19.2-4.1-6.6-4.2-7.1-2.5-8.3 3.5-2.6 21.9-13.3 29.3-17 7.1-3.6 31-14.4 31.9-14.5.3 0-.6 1.2-2 2.7zm520.5 5.6c5.1 7.3 8 12.6 12.3 22.3 4.3 9.8 6.1 17.3 6.8 28.4l.6 9.5-4.6-9c-2.6-5-5.7-10.8-7-13.1-1.3-2.2-3.7-9.4-5.4-16-1.7-6.5-4.3-15.8-5.9-20.6-1.7-4.8-2.6-8.5-2.1-8.2.5.3 2.8 3.3 5.3 6.7zm-111.7 29.1c-.4 12.7-.6 23.2-.7 23.2 0 .1-5.1-1.4-11.2-3.2-14.3-4.3-40.8-11-47.1-11.9-2.7-.4-4.5-1.1-4-1.5.4-.4 5.3-2.4 10.8-4.5 14.5-5.5 30.6-13.4 41.5-20.3 5.2-3.3 9.9-5.8 10.4-5.5.5.4.6 10.5.3 23.7zm104.7-8.5c6.3 9.4 8.9 14.2 9.5 17.7.5 2.7.8 5.1.6 5.3-.2.2-2.4-1.6-4.9-3.9-2.5-2.3-8-6.9-12.3-10.2-4.3-3.3-8-6.1-8.2-6.3-.1-.2.7-3.4 1.9-7.2 1.2-3.7 2.3-7.4 2.6-8.1.7-2.2 1.9-.7 10.8 12.7zm-86.2 11c9.3 13.7 23 36.2 22.4 36.8-.2.2-3-.8-6.2-2.2-4.9-2.2-18.6-7.6-29.5-11.7-2.6-.9-2.6-1.1-2.2-8.1.2-4 .5-13.4.6-21l.2-13.9 2.8 3.4c1.5 1.8 6.9 9.3 11.9 16.7zm-493.6-8.3c-1 2.6-2.3 1.4-1.8-1.7.4-2.6.6-2.9 1.4-1.5.5 1 .7 2.4.4 3.2zm8.6 13.4c3.1 4.7 7.4 10.6 9.7 13.2l4.1 4.6-5.1 8.9c-2.8 4.8-7.8 14.2-11 20.8-5.4 10.9-8 14.7-9.3 13.5-1.6-1.7-2.4-36.4-1.2-55.5.6-10.1.9-11.2 3.3-13.3 1.4-1.3 2.9-2 3.3-1.5.3.4 3.2 4.6 6.2 9.3zm295.6-8.5c1 1 .3 21.8-.8 22.5-.5.3-8.5.6-17.7.6l-16.8-.1.1-8.5c.3-15.7.1-14.8 3.2-15.2 4.3-.5 31.4.1 32 .7zm266.7 4.4c5.6 4.3 9.2 7.3 17.1 14.7 4.2 3.9 4.9 8.8 4.9 35.9v20l-3.4 4.7c-3 4.1-3.7 4.6-5.2 3.5-.9-.6-5.9-4.6-11.2-8.7-11.3-8.9-26-18.1-40.3-25.5l-10.3-5.3 3.7-2.8c8.2-6.2 24.9-24.1 30.6-33.1 3.3-5.1 6.5-8.9 7-8.6.6.4 3.8 2.7 7.1 5.2zm-429.7-1.6c4.6 1.7 8.4 3.6 8.5 4.2.2 1.1-5.3 3.1-10.6 4-1.8.3-4 .8-4.9 1.1-1.4.4-1.8-.1-1.9-2.3-.1-1.5-.2-4.2-.3-5.8-.1-2.7.1-4.5.7-4.5.1 0 3.9 1.5 8.5 3.3zm124.7-.6c-.3 1.5-.7 6.8-.9 11.8-.3 4.9-.5 9-.6 9.1 0 0-1.5-.1-3.2-.2-1.8-.1-7.6-.5-12.8-.9-10.6-.6-12-.8-27.5-3-16.2-2.3-17-2.5-25.5-4.2-1.9-.4-3.7-.8-4-.8-5.1-.9-20-5.1-20-5.5 0-.4.6-.7 1.3-.7 2 0 10.9-1.3 16.2-2.3 2.8-.5 7.7-1.2 11-1.5 3.3-.3 7.8-.8 10-1 8.4-1.1 11.5-1.4 22.1-2.1 6-.3 11-.7 11.1-.8.1-.1 5.4-.3 11.7-.4l11.6-.3-.5 2.8zm69-1.2c11.7 1 17.2 1.6 21 2.1 4 .4 5.1.6 17.2 1.9 5.7.7 6.3 1 7.2 3.8.6 1.7 1 3.2.8 3.3-.3.4-12.5 3-17.9 3.9-1.8.3-4 .8-4.8 1-.8.2-4 .7-7 1-3 .3-7.8 1-10.7 1.5-6.2 1.1-20.8 2.4-27.8 2.4l-4.9.1.1-5.3c0-2.8.1-7.9.2-11.3l.1-6.1 10.8.6c5.9.4 13 .8 15.7 1.1zM59.9 227.7c-.9 10.2-.8 40.6.3 51.3l.9 9.4-2.8 2.1c-1.5 1.1-4.7 3.7-7.2 5.8l-4.4 3.9-2.3-2.9c-6.3-7.8-15.5-28.9-16.9-38.9-.6-4.5.9-6.9 11.7-18.6C43.5 235.1 59 221.1 60 221c.3 0 .3 3-.1 6.7zm400-3.7c.9.5.2 1-2.3 1.4-5 1-4.9 1-5.8-1.3-.7-1.9-.4-2 3-1.5 2 .3 4.3.9 5.1 1.4zM264 234c20.8 4.2 47.4 7.5 64.2 7.9l3.7.1-.4 6.7c-.2 3.8-.6 14.7-1 24.3-.4 9.6-.9 17.7-1.1 17.9-.7.7-1.7.8-16.8 1.5-7.5.4-15.2.9-16.9 1.1-1.8.2-5.9.6-9.2 1-9.7.9-22.9 2.5-25.6 3-.9.2-3.8.6-6.5 1-2.7.3-11.5 1.8-19.5 3.3-13.4 2.6-15 2.7-20 1.4-6.8-1.7-7.6-2.5-8.3-8.7-.4-2.8-1.1-8.4-1.6-12.5s-1.2-9.4-1.5-11.7c-.4-3.3.3-6.2 2.6-12 4.1-10.5 12-28.5 13.2-30 .5-.7 2.7-1.6 5-2.1 3.3-.6 6.4-.2 14.7 2 5.8 1.6 17 4.2 25 5.8zm221.8-5.6c14.4 3.2 31.9 7.8 43.6 11.3l11.8 3.7-.6 8.6c-.4 4.7-.8 9.8-1 11.5-.6 5-1.9 14.9-2.1 16-.1.5-.3 2-.3 3.3-.2 1.8-1.4 2.9-5.4 4.6-16.8 7.4-52.3 18.3-54.5 16.7-.5-.3-3.3-9.2-6.2-19.6-2.9-10.5-7.9-26.9-11.1-36.5-3.3-9.6-5.7-17.6-5.6-17.8.2-.1 3.2-1.1 6.7-2.2 7.3-2.1 13.9-2 24.7.4zm-271.6 1.4c-4.8 11.8-11.6 27.1-11.9 26.9-.3-.4-1.6-16.4-1.7-22.2-.1-2.9.1-3 6.9-4.6 3.9-1 7.1-1.8 7.2-1.8.1-.1-.1.7-.5 1.7zm237.1 3.4c.3 1.3 2.6 8.4 5.2 15.8 4.7 13.8 16.4 53.2 15.9 53.8-.1.2-2.6-.1-5.6-.7-2.9-.6-7-1.3-9.2-1.7-2.1-.3-4.8-.8-6-1-3.8-.7-30.9-4.2-38.1-4.9-3.8-.4-8.1-.8-9.5-1-1.4-.2-8.3-.7-15.5-1-7.1-.4-13.2-.9-13.3-1-.3-.3-.3-16.8.1-40.7.1-4.9.4-8.8.7-8.9.3 0 1.4-.2 2.5-.4s6.1-.6 11-.9c12.4-.8 35.9-4.2 48.5-7.1 13.3-2.9 12.7-2.9 13.3-.3zm-254.2 4c0 2.4.2 5.4.4 6.8.1 1.4.6 7 1 12.5.7 9.6.6 10.3-2.3 17.5-1.6 4.1-3.9 10.6-5.2 14.3-2 6.1-2.4 6.7-4.3 6.1-4.4-1.2-25.4-9.8-32.6-13.2-15-7.1-36.1-19.5-36.1-21.2 0-1.4 33.9-14.8 48.4-19.1 17.2-5 27.2-7.8 28.9-7.8 1.3-.1 1.7.8 1.8 4.1zm467.9.7c0 1.1-.4.9-1.5-.5-.8-1-1.5-2.5-1.5-3.3 0-1.1.4-.9 1.5.5.8 1 1.5 2.5 1.5 3.3zm14.3 3.3c.3 1.3 2.1 7.9 4.1 14.7 4.2 14.6 4.4 16.2 1.3 10.1-1.3-2.5-3.5-6.3-5-8.6-2.4-3.6-2.7-4.8-2.5-11.2.3-7.2 1.1-9.2 2.1-5zm-307.7 19.2c-.3 9.9-.5 21-.5 24.6l-.1 6.5h-38.1l.5-8.5c.7-10.7 1.9-35.8 2-38.6 0-2 .5-2 18.3-2.1l18.3-.1-.4 18.2zM22.8 248.2c.1 4.6-.4 6.2-4.3 12.3-2.5 3.8-4.5 6.8-4.5 6.5 0-.3 1.8-5.6 4-11.9 2.2-6.3 4-11.6 4-11.8 0-.2.2-.3.4-.3s.4 2.4.4 5.2zm646.3 1.1c3.4 4.2 4 5.6 3.5 8.1-.3 1.7-.8 4.2-1.1 5.6-.6 3-5.7 18.1-6.1 17.7-.1-.1-.5-7-.8-15.3-.3-8.3-.8-16.8-1.2-18.9-.7-4.6.3-4.1 5.7 2.8zm-567.8 2.8l8.3 7.2-10.4 5.4c-5.8 3.1-13.5 7.3-17.1 9.5-3.6 2.2-7 4.3-7.5 4.5-.4.3 1.6-4.1 4.5-9.8C84.9 257.6 92 245 92.6 245c.2 0 4.1 3.2 8.7 7.1zm454.7-3.4c13.1 5 26 10.6 26 11.4 0 1.2-16.5 11.1-29.5 17.8-12.8 6.6-12.1 6.8-10.5-3.9.5-3.6 1.2-9.9 1.6-14 .3-4.1.8-8.4.9-9.5.1-1.1.3-2.8.4-3.8.1-2.1.7-2 11.1 2zM27 270c2.6 8.6 7.6 19.1 13 27l3.8 5.5-7.1 7.5c-8.3 8.9-17.4 20.9-21.3 28.5-1.6 3-3.1 5.5-3.4 5.5-.8 0-2.4-5-4.1-12-1.9-7.9-1.7-27.8.4-37.6 2-9.5 6.2-20.2 11.5-29.2 2.9-4.9 3.8-5.9 4.3-4.5.4 1 1.7 5.2 2.9 9.3zm90.5-5.4c15.5 10.5 34.6 20.3 55.7 28.5 7.6 3 13.8 5.9 13.8 6.5 0 .5-1 4.1-2.3 7.8l-2.3 6.9-14 4.7c-20.4 6.9-34 12.5-51.1 21.2l-15.2 7.6-11.1-7.4c-6.1-4-13.3-9.1-15.9-11.3-4.7-4-4.7-4-6.6-14.3-2.9-16.8-2.9-17.1 0-23.5 2.4-5.6 3.2-6.3 12.4-12 10.7-6.7 30-17.2 31.7-17.2.6-.1 2.8 1.1 4.9 2.5zm478.3 14.1c10.8 22.4 23.4 54.4 22 55.9-.3.3-5 3.4-10.3 6.9l-9.7 6.3-14.2-7.2c-12.7-6.5-43.5-19.6-46.1-19.6-3 0-3.1-2.3-.9-13.8 2-10.2 3-16 3.3-18.4.1-.4 5.9-3.6 13.1-7.2 7.1-3.6 17.6-9.5 23.2-13 5.7-3.6 10.6-6.6 10.9-6.6.3 0 4.2 7.5 8.7 16.7zm85.2-3.3c4.6 13.7 7 22.5 10 38 2.4 11.9 2.2 16.4-.8 26.1l-1.8 5.7-4.9-8.4c-4.7-8.2-12.3-18.5-17.8-24.3-2.8-3-2.8-3-2.2-12.4.6-8 1.2-10.5 4-16 1.8-3.6 4.4-10.1 5.7-14.3 1.3-4.2 2.6-7.4 3-7 .3.4 2.5 6.1 4.8 12.6zm-79.1-6.2c17.9 9.8 41 25.6 46.9 32l2.3 2.5-7.8 8.3c-4.3 4.5-11 10.9-14.9 14l-7 5.8-1.9-5.6c-3.8-11.4-12.8-33-19.5-47-3.8-7.8-6.6-14.2-6.3-14.2.3 0 4 1.9 8.2 4.2zm-401.2 7c.4 4.4 2.4 20.3 2.9 22 .3 1 0 1.5-.8 1.4-1.6-.3-9-2.7-10-3.3-.4-.2.6-4.2 2.3-9 5.3-14.9 5.3-15 5.6-11.1zm490.8 17.3c.9 4.1 1.5 8 1.2 8.7-.3.7-.6.4-.6-.7-.1-1.1-1.5-6.7-3.2-12.5-4.2-14.4-4.4-15.4-1.5-8.7 1.3 3.1 3.2 9.1 4.1 13.2zm-156-.3c-.3 1.8-1.4 8-2.3 13.8-2.1 12.5-.6 12.1-20.2 6.2-7.4-2.2-16.1-4.5-19.3-5.2-3.1-.7-5.6-1.5-5.4-1.7.2-.1 5.5-1.9 11.8-3.8 6.3-1.9 16.6-5.5 22.9-7.9 6.3-2.5 11.9-4.5 12.3-4.5.4-.1.5 1.4.2 3.1zm-473.5 2c0 2.6-5 15.8-6 15.8-.4 0-2.1-1.8-3.8-3.9l-3.2-4 2.8-2.4c5.3-4.9 8.7-7.6 9.5-7.7.4 0 .7 1 .7 2.2zm266.7 12.1c-.3 6.7-.6 12.3-.6 12.4-.1.1-2.9 0-6.3-.2-15.4-.9-26.4-1.7-27.8-2-.8-.2-4.4-.6-8-1-3.6-.3-10.5-1.2-15.5-2-4.9-.7-10.8-1.6-13-2-5.3-.7-22.2-4.2-25.9-5.3-2.7-.7-2.2-1 4.5-2.1 4.1-.7 8.3-1.5 9.4-1.7 1-.2 3.7-.6 6-.9 2.2-.4 5.1-.8 6.5-1 5.6-.9 18.9-2.5 25-3.1 3.6-.3 7.6-.7 9-1 1.4-.2 7.7-.6 14-1 6.3-.3 11.6-.7 11.7-.8.1 0 2.7-.2 5.8-.3l5.7-.2-.5 12.2zm42-.2c-.3 6.7-.7 12.3-.9 12.4-.4.4-14.2.7-28.6.6l-9.3-.1.5-9.8c.2-5.3.5-10.9.5-12.5l.1-2.7h38.2l-.5 12.1zm23.8-10.6c6.1.3 12.1.8 13.5 1 1.4.1 5.7.6 9.5.9 3.9.4 8.1.9 9.5 1.1 2.6.4 16.7 2.4 21 2.9 1.4.2 7.2 1.2 12.9 2.2 8.7 1.5 9.9 1.9 7.5 2.6-7.1 1.9-28.1 5.9-38.4 7.3-2.5.3-5.6.8-7 1-1.4.2-5.3.7-8.8 1-3.5.4-7.1.8-8 1-.9.1-6.4.6-12.2 1-5.8.4-12.7.8-15.3 1.1l-4.8.3.2-11.7c.1-6.4.6-12 1.1-12.3.5-.3 2.6-.5 4.6-.3 2 .1 8.7.5 14.7.9zm265.3 5.5c-.2 3.7-.3 3.9-1.9 2.4-1.7-1.5-1.7-1.8-.2-4 2.1-3.3 2.4-3 2.1 1.6zm-460.8.3c8.8 2.8 8 5.3-3 8.3-4.6 1.3-8.6 2.1-8.8 1.9-.4-.3 2.5-10 3.5-11.8.5-.8 1.6-.6 8.3 1.6zm-135.5 4.5c.1.7.9 5.4 2.1 11.7l.6 3-3.5-3.3-3.5-3.4 1.6-4.9c1.3-4.1 2.6-5.5 2.7-3.1zm148.5-.2c0 .2-.9.4-2 .4s-2-.4-2-.9.9-.7 2-.4c1.1.3 2 .7 2 .9zm-161.3 4.3l4.3 4.9-2.1 5.9c-1.8 5.3-8.3 28.1-9.4 32.8-1.3 6.1-4.4 22.5-4.8 25.8-.7 5.1-1.5 5.7-3.8 2.7-9.4-11.9-14.1-18.7-17.4-25.3l-4-7.7 4-7.8c2.2-4.2 6.7-11.3 10-15.8 5.9-7.8 17.3-20.4 18.4-20.4.3 0 2.5 2.2 4.8 4.9zm606.1-2.6c2.4 2.5 2.4 2.4-.9 21.2-2.7 14.7-11.8 49.4-13.6 51.4-.2.3-2.5-1.7-5.2-4.3-3.2-3.2-5.1-6-5.6-8.2-.3-1.9-2.4-10-4.6-18.1l-4.1-14.8 5.4-4.4c2.9-2.5 9.8-9.1 15.3-14.7s10.3-10.2 10.6-10.3c.3-.1 1.5.9 2.7 2.2zm-415.3 4.8c5.5 1.1 11.6 2.2 13.5 2.5 1.9.3 4.6.7 6 1 1.4.2 4.1.7 6 1 1.9.2 4.6.7 6 .9 1.4.2 5.2.7 8.5 1 3.3.4 6.7.8 7.5 1 .8.2 6 .7 11.5 1.1 5.5.4 11.1.8 12.5.9 1.4.2 5.4.3 8.8.4l6.4.1-.7 20.2c-.7 22.7-1.3 32.9-1.7 33.3-.2.1-5.2.6-11.3.9-14.9.9-20.2 1.4-24.4 2-2 .3-6.5.8-10.1 1.2-3.6.3-6.7.7-7 .9-.3.1-3.2.6-6.5.9-3.3.4-13.8 2.3-23.4 4.2-9.6 1.9-17.5 3.3-17.6 3.2-.5-.6-9.5-40.7-11.6-51.8-2.5-13.6-2.5-13.3-3.4-19-.4-2.5-.9-5.3-1.1-6.2-.2-1.3.8-2 3.9-2.8 2.3-.6 4.7-1.2 5.2-1.4.6-.2 3.7.3 7 1.1s10.5 2.3 16 3.4zm263 1.3c5.5 1.5 13.5 3.8 17.8 5.2l7.8 2.6-.7 3.6c-.9 5.2-9.7 40.2-12.3 48.9-1.2 4-2.6 7.5-3.2 7.9-1.1.6-17.8 5.4-19 5.4-.4 0-1-2.1-1.4-4.8-.3-2.6-2.4-13.7-4.6-24.7-2.2-11-4.3-21.1-4.5-22.5-.3-1.3-1.8-7.8-3.4-14.4-1.6-6.6-2.7-12.3-2.5-12.7.5-.8 10.7 1.4 26 5.5zm-28.1 3.3c1.8 7.9 6.4 28.1 7.2 31.8.3 1.1 1.8 9.2 3.4 18 1.6 8.8 3.2 17.2 3.4 18.7.5 2.4.1 2.8-3.2 3.8-5.6 1.5-8.9 1.3-23.1-2-7.1-1.6-15.2-3.2-17.8-3.6-2.6-.3-5-.7-5.3-.9-.3-.2-3.4-.6-7-1s-6.7-.9-7-1c-.3-.2-3.7-.7-7.5-1-3.8-.4-7.8-.9-9-1.1-1.1-.2-5.6-.6-10-1-4.4-.3-10-.7-12.5-.9-2.5-.2-7.1-.4-10.3-.4l-5.9-.1.8-20.8c.4-11.4.8-23.3.8-26.4.1-3.1.4-5.9.6-6.1.3-.3 5.5-.8 11.5-1.2 6.1-.3 12.8-.8 15-1 13.1-1.3 16.8-1.7 18.3-2 .9-.1 4.2-.6 7.2-1 4.9-.6 29.5-4.7 36-6 1.4-.3 3.9-.9 5.5-1.4 6.6-2 6.9-1.8 8.9 6.6zm-270.9-4.5c.3.7 1.8 8.5 3.5 17.3 1.6 8.8 3.2 17.1 3.4 18.5 1.7 7.8 7 31.3 8.2 35.9.9 3.7 1.1 5.7.4 6.1-2.4 1.5-51-12-51-14.1 0-2.1 6.4-28.3 10.7-43.6l4.5-16.1 8.6-2.5c10.4-3 11.1-3.1 11.7-1.5zm467.6 14.2c3.2 4.3 7.5 11.1 9.6 15.1l3.7 7.3-1.9 4.3c-2.5 5.6-10.5 17.9-15.9 24.4-5 6.2-13.8 15.5-14.5 15.5-.3 0-2.5-2.2-4.8-4.9l-4.2-4.9 2.4-7.3c5.2-16.3 9.6-33.1 11.9-45.9.2-1.4.7-4.3 1.2-6.5.4-2.2.8-5.1 1-6.5.1-1.4.3-3 .3-3.5.2-1.2 3.5 2.5 11.2 12.9zm-606.3-.7c.2.1 1.5 4.6 2.8 10 1.4 5.4 3.7 13.8 5.1 18.7l2.7 8.9-5 4c-2.7 2.2-9.8 9-15.8 15l-10.9 10.9-2.3-2.4c-2.5-2.5-2.5-2.6.2-19.3 2-12.7 10.9-46.9 13.6-51.8.9-1.8 1.2-1.7 5.1 1.9 2.3 2.2 4.3 4 4.5 4.1zm114.2-7.3c0 .3-.5 1.7-1 3.2-1.3 3.4-11.5 43.4-12.4 48.6-.4 2.1-1.1 4-1.6 4.3-1.2.7-7-1.2-21.2-7-13.1-5.4-37.8-17.5-37.8-18.6 0-.9 27.8-14.6 37.5-18.5 9.8-3.9 33.7-12.3 35.3-12.3.6-.1 1.2.1 1.2.3zm188.2 23.7c-.3 16.1-.6 25.7-1.1 32.4-.1.6-7.2 1-19.2 1h-19l.6-20.3c.9-26.6 1.1-30.8 1.8-31.8.3-.5 8.8-.9 18.9-.8h18.3l-.3 19.5zM551.7 330c13.8 5.5 41.3 18.8 41.3 19.9 0 1.1-25.1 13.4-38.8 19-11.9 4.9-34.2 12.5-34.7 11.9-.2-.2 1.8-8.2 4.5-17.8 2.6-9.6 5.8-22.4 7.1-28.3 2.8-12.9 1.1-12.5 20.6-4.7zm-476.8 3.4c.7.8 6.1 4.7 12.2 8.7 6 4 10.9 7.5 10.9 7.9 0 .6-14.3 10.4-17.1 11.8-.6.3-2.3-5.1-6.1-19.3-1-3.9-2.1-7.8-2.4-8.8-.6-2.1.9-2.3 2.5-.3zM7.7 355.6c-1.1 3-2.1 5.3-2.3 5.2-.1-.2-.5-6.2-.8-13.3l-.5-13 2.8 7.8 2.8 7.8-2 5.5zm613.4-13.4c.6 2.4 2.3 8.8 3.9 14.3 1.5 5.5 2.6 10.3 2.3 10.7-.2.4-3.9-1.9-8.1-5-4.3-3.2-9.9-7-12.6-8.6-2.6-1.5-4.6-3.2-4.4-3.7.3-.9 15.8-11.7 17-11.8.4-.1 1.2 1.8 1.9 4.1zm74.3 10.9l.4 13.4-2.7-8.5-2.7-8.5 2-5.3c1-2.9 2-5.1 2.2-4.9.2.2.6 6.4.8 13.8zm-585.7 2.8c9 5.1 27 13.3 41.3 18.8 6.3 2.4 12.2 4.7 13.1 5.1 1.4.6 1.5 1.4.4 6.7-.7 3.3-2 10.4-3 15.8l-1.7 9.8-8.4 4c-10.6 5-20.8 10.7-30.7 17.1-4.3 2.8-7.9 4.9-8.2 4.7-1.6-1.6-16.6-34.2-21.4-46.4-8.3-21.3-9.7-25.5-8.6-26.3 1.7-1.3 19.9-13.2 20.1-13.2.1 0 3.3 1.7 7.1 3.9zm493.6-.2c3.3 2 10.4 6.9 15.8 10.9 10.9 8.1 10.7 7.8 13.3 23.8 1.9 11.2 1.9 11.6-.8 17.9-2.3 5.5-3.3 6.7-8.9 10.1-9.7 6.2-21.7 13-29 16.6l-6.7 3.3-7.7-5.1c-10.2-6.5-22-13.2-31.9-17.7-9.6-4.5-31.9-13.5-33.4-13.5s-1.3-1.9 1.3-9.5l2.3-6.8 14-4.7c7.6-2.6 18.6-6.6 24.4-9 11.5-4.6 38.8-17.8 39.6-19.2.8-1.2 1.2-1.1 7.7 2.9zm-589.2 3.5c3.3 6.4 9.5 15.4 16.6 24l6.4 7.8-.6 7.7c-.9 10.8-1 11-4.4 18-3.4 7-7.1 17.3-7.1 20 0 4.8-4.2-5.4-9.4-22.7-5.3-17.9-8.9-36.6-8.1-42.5.6-5 3.5-16.5 4.1-16.5.2 0 1.3 1.9 2.5 4.2zm675.3-1.4c5.9 18.4 5.7 38.7-.4 57.3-2.5 7.7-8 19.1-11.6 24.3-1.2 1.8-1.3 1.7-1.9-1-2.6-11.7-8.5-25.2-15.4-35.4l-3.8-5.5 7.9-8.5c7.7-8.2 20.9-26.6 22.3-30.9.8-2.6 2.2-2.7 2.9-.3zM94 408c2.3 5.2 6.2 13.4 8.6 18.2 2.4 4.9 4.2 8.8 3.9 8.8-.7 0-12-6.2-21.5-11.8-9.6-5.6-25.2-16.7-31.4-22.3l-4.8-4.4 6.8-7.4c3.8-4.1 10.5-10.5 14.8-14.2l8-6.8 5.7 15.2c3.1 8.4 7.6 19.5 9.9 24.7zm545.2-17.9c-.9 2.7-1.8 4.7-2 4.5-.5-.5-2-7.2-2.8-12.4l-.6-3.7 3.5 3.3 3.5 3.4-1.6 4.9zm-313.4 2.3l-.3 12.1-4.5-.1c-5.9-.1-25.7-1.4-29.5-1.9-1.6-.2-5.7-.7-9-1-5.6-.5-16.7-1.9-24.5-3.1-1.9-.3-6-.9-9-1.4-12.3-1.9-19-3.4-17.8-4.1 1.1-.6 6.6-1.9 14.8-3.4 1.4-.3 3.6-.7 5-1 3.1-.6 10.7-1.8 25.2-3.9 7.8-1.2 21.8-2.6 31.8-3.2 5.8-.4 10.6-.7 10.7-.8.1-.1 1.8-.2 3.8-.3l3.6-.1-.3 12.2zm41.9-1.7c-.4 6-.6 11.6-.7 12.5 0 1.7-1.6 1.8-19 1.8h-19l.4-11.8c.2-6.4.5-12 .5-12.5.1-.4 8.7-.7 19.2-.7h19.1l-.5 10.7zm27.3-9.1c5.2.3 10.1.7 11 .9.8.1 4.7.6 8.5 1 3.9.4 7.7.8 8.5 1 .8.1 4.2.6 7.5 1 3.2.3 6.2.8 6.5 1 .4.2 2.9.7 5.6 1 2.7.4 5.7.9 6.7 1.1 1 .3 3 .7 4.5.9 3.8.5 15.3 3.3 15.8 3.8.3.3-1.7.8-4.3 1.3-2.6.4-5 .8-5.3.9-.3.1-3 .5-6 .9-3 .5-6.4 1-7.5 1.2-1.1.3-3.6.7-5.5.9-1.9.3-5.3.8-7.5 1.2-4.5.7-4.9.7-16.5 1.7-4.7.4-9.2.9-10 1.1-.8.2-6.2.7-12 1-5.8.3-13.6.8-17.3 1l-6.9.5.3-11.3c.1-6.1.5-11.7.7-12.4.4-1.2 2.1-1.2 23.2.3zm-205.6 5.8c6.7 1.9 14.5 4 17.3 4.7 2.9.7 5.1 1.4 5 1.5-.2.2-5.7 1.9-12.2 3.9-6.6 2-17.2 5.6-23.5 8-6.3 2.4-11.6 4.3-11.8 4.1-.1-.2.9-6.6 2.3-14.1 1.4-7.6 2.5-14 2.5-14.1 0-.2 1.9.4 4.2 1.2 2.3.8 9.6 3 16.2 4.8zm323.6.4c0 1.3-3.2 10.6-3.9 11.4-.6.7-10.5-2-12.9-3.5-3.1-2-.6-4.2 7.3-6.3 9.5-2.6 9.5-2.6 9.5-1.6zm134.9 4.9c1.7 2.1 3.1 4 3 4.3 0 .3-2.6 2.6-5.8 5.2-8 6.5-9 5.1-4.4-6.4 1.4-3.8 3-6.8 3.4-6.8.4 0 2.1 1.7 3.8 3.7zM491.5 394c-.3.5-1.2.7-2 .3-2.1-.7-1.9-1.3.6-1.3 1.1 0 1.8.4 1.4 1zm-448.7 2.3c.8 1 .5 2-1.1 4.1l-2.3 2.8.4-4.1c.4-4.3 1.2-5 3-2.8zm180.7-.1c.1.2 1.9 6.6 3.9 14.3 4.7 17.2 14.1 46.9 18.3 58.1.4 1.1-12.8 5.4-16.7 5.4-5.6 0-38.1-7.6-57.7-13.6-10.7-3.2-13.8-4.8-12.8-6.4.2-.3.6-3.9.9-8 .7-9.6 3.4-29.9 4.1-31 1-1.6 25.7-10.8 41-15.3 12.9-3.7 18.1-4.7 19-3.5zm268.9 2.9c.2.2.7 3.1 1 6.4.4 3.3.9 7.1 1.1 8.5.3 2.3.8 5.9 2 16.3.4 3.2-.9 7.2-7.1 22-4.1 10-8.2 18.9-9 19.7-2.3 2.3-12.7 1.8-23.9-1.2-10.7-2.9-31.9-7.3-39.7-8.2-4.7-.6-10.1-1.4-14.7-2.1-3.4-.6-24.1-2.2-30.9-2.4l-3.2-.1.4-7.3c.3-3.9.8-14.3 1.1-23 .4-8.7.8-16.5.9-17.4.3-2 0-1.9 16.2-2.7 12.4-.6 18.1-1 26.9-2 2.2-.3 6.7-.8 10-1.1 3.3-.3 10.5-1.3 16-2.1s11.7-1.8 13.8-2.1c2.1-.3 8.9-1.5 15-2.7 10.9-2.2 11.4-2.2 17.5-.6 3.5 1 6.4 1.9 6.6 2.1zM234.1 398c3 .6 6.5 1.2 7.9 1.4 3.2.6 11.4 1.9 12 2.1.6.1 12.9 1.9 14.5 2 10.8 1.2 16.3 1.8 17.6 2 3.6.7 27.8 2.4 35.2 2.4 2.7.1 4.6.5 4.3.9-.2.4-.6 11.5-.7 24.6-.2 15.1-.7 24-1.4 24.4-1.3.8-1.2.8-12.5 1.6-11.4.8-14.8 1.2-34 4.1-5.8.9-13 2.3-16 3-12.2 3.1-11.3 3.3-13.8-4.3-8.8-26.4-19.2-61-19.2-63.9 0-1.6-.5-1.5 6.1-.3zm-222 16.5c1.5 5.4 2.6 10.1 2.5 10.3-.4.4-5.4-14.2-6.1-17.9-.3-1.3-.7-4-1-5.9l-.5-3.5 1.2 3.5c.6 1.9 2.3 8 3.9 13.5zm43.9-7c12.2 9.8 31.7 22 50.3 31.4 3.4 1.8 3.4 2.4.1 4.6-9 5.8-28.3 27.5-33.2 37.2-1.2 2.3-2.5 4.4-3 4.7-1.9 1.2-29.1-21.7-29.3-24.6 0-.7-.3-2.2-.5-3.3-.8-3.3-1.7-43.1-1.1-45.7 1-3.8 6.8-11.9 8-11.1.6.4 4.5 3.4 8.7 6.8zm445.3-6c2.6.8 5.2 1.7 5.7 2 .5.3-.7 5.1-2.7 10.8-3.5 10-4.9 13-5 10.5-.1-2.2-1.3-13.2-1.9-16.3-.6-3.2-1.2-8.5-1-8.5 0 0 2.3.7 4.9 1.5zm160.2 10.8c4.2 7.5 8.8 18.5 10 24.5 1.8 8.3 1.8 8.7-2.3 13.8-5.2 6.5-12.2 13.7-20.2 20.8-9.5 8.5-9.8 8.5-9.1 2.3.8-7.7.7-45-.2-54.2l-.8-8.1 7.3-5.7 7.3-5.7 1.7 2.2c1 1.3 3.8 5.8 6.3 10.1zm-135.3-2c16.3 6.6 28.2 12.3 41.3 19.9 10.7 6.2 15.3 9.4 14.5 10.1-4.3 4.2-76.7 28.6-78.5 26.5-.2-.3-.5-3.3-2.1-24.6-.6-7.8-.5-8.3 4.7-22.6 2.9-8 5.6-14.6 6-14.6.4 0 6.7 2.4 14.1 5.3zm-159.6 6.2c-.3 4.4-.8 14.3-1.2 22-.3 7.7-.8 14.7-1 15.5-.1.8-.3 2-.3 2.6-.1.7-5.8 1.1-18.1 1.2h-18.1l.5-18.1c.2-10 .5-21.1.5-24.7l.1-6.5h38.1l-.5 8zm269.9 6.5c.6 7.3.7 42.4 0 48.5-.2 1.6-.4 4.5-.4 6.3-.1 2.1-1 4.2-2.6 5.7-2.5 2.6-4.5 3.2-4.5 1.4 0-1.8-8.9-15-14.2-21.2l-5-5.7 3.3-5.3c1.8-2.8 6.8-12.1 11.2-20.6 10.9-21.2 11-21.3 12.2-9.1zm-478.1-.3c-.3 3.2-.7 6.5-.9 7.3-.1.8-.6 4.9-1 9s-.9 9.3-1.1 11.4c-.2 2.1-.5 4-.7 4.2-.9 1-36.7-13.4-36.7-14.7 0-1.9 36.9-22.9 40.3-22.9.4 0 .5 2.6.1 5.7zm-123 12.8c.4 8.8.9 17.3 1.2 19l.5 3-2.5-2.4c-1.4-1.3-3.7-4.1-5.2-6.2-2.2-3.2-2.5-4.5-2-7.6.7-3.8 6.7-22.5 7.1-22.1.2.2.6 7.5.9 16.3zm583.6-.8c-6 11.4-9.3 17.1-11.7 20.2-.1.2-2.4-1.6-5-4-2.7-2.4-6.4-5.6-8.3-7.1-1.9-1.5-3.2-2.9-3-3.1.3-.2 4.6-2.6 9.5-5.3 5-2.6 12.6-6.9 17-9.6 4.4-2.6 8.2-4.8 8.3-4.8.2 0-2.9 6.2-6.8 13.7zm-604-1.6c0 .5 1.8 3.8 4 7.3 3.8 6 4 6.6 3.8 14-.1 4.2-.5 7.1-.9 6.4-.8-1.4-7.1-22-8.3-27.1-.4-1.9-.3-2.6.4-2.2.5.3 1 1.1 1 1.6zm667 11.8c-2.2 6.3-4.2 11.6-4.4 11.8-.2.2-.4-2-.4-4.9.1-4.4.8-6.4 4.2-12 2.2-3.7 4.2-6.6 4.3-6.4.1.1-1.6 5.3-3.7 11.5zm-183.4 7.2c.4 4.6.8 10.2.8 12.3l.1 3.9-7.2 1.7-7.2 1.7 1.3-3.1c5.3-12.5 9.4-22.4 10-24 1-3 1.5-1.5 2.2 7.5zm95.3-3.7c3.6 3 7.7 6.6 9 8l2.5 2.6-10.7 15.8c-10.5 15.5-20.6 28.7-31.4 41l-5.5 6.3-5.9-5.6c-7.7-7.1-23.5-17.5-37.2-24.5l-10.7-5.5-.1-5c0-2.7-.2-6-.3-7.3-.4-3 .7-3.6 8.9-5.6 16.9-4.1 43.6-13.1 61-20.6 6.1-2.7 11.6-4.8 12.4-4.9.8-.1 4.4 2.3 8 5.3zM117 453.2c6.8 12 20.3 32.6 29.1 44.4 8 10.9 9 13.5 6 15.7-1.2.8-4.1 3.3-6.5 5.5l-4.4 4.2-8.6-3.5c-18-7.2-37.7-17.3-53.4-27.2l-6.2-4 2.5-4.7c3.8-7.2 13.4-19.3 21.1-26.6 5.8-5.5 14.4-13 15-13 .1 0 2.5 4.2 5.4 9.2zm15-3c7.4 3 15.6 6.3 18.1 7.2l4.7 1.7-.5 5.7c-.2 3.1-.5 12.6-.6 20.9-.1 8.4-.4 15.3-.7 15.3-.8-.1-13.7-18.8-22.6-32.8-10.8-17-15.1-24.7-13.3-24 .8.3 7.5 3.1 14.9 6zm541.7 9.2c-.4 7.5-.9 9.4-4.7 17.3-5.6 11.3-15.2 27.6-22.5 37.8-8.2 11.5-8 11.4-8.2 4.3-.2-3.4-.7-8.7-1.3-11.7-.8-4.3-.6-7.6.5-14.1.8-4.7 1.5-8.6 1.5-8.7 0 0 2.9-2.4 6.4-5.1 7-5.5 21.2-19.4 25.3-24.8 1.4-1.9 2.7-3.4 2.9-3.4.3 0 .3 3.8.1 8.4zM36.5 472.5c2 3.6 4.6 11.1 6.4 18 1.7 6.6 4.4 16 6 20.8 3.6 10.5 2.5 10.2-5.3-1.7-6.1-9.2-12.8-23.5-15-32.2-.8-3.2-1.8-10.2-2.2-15.4l-.6-9.5 3.7 7c2 3.8 5.2 9.7 7 13zm141-6.6c5.5 1.6 15 4.1 21 5.5 6.1 1.5 12.6 3.1 14.6 3.6 2 .6 4.7 1 6 1 3.6 0 1.3 1.3-8.6 5-13 4.8-31.6 13.9-42.5 20.8-5.2 3.3-9.9 5.8-10.4 5.5-.6-.4-.3-43 .4-47 0-.1 2.1.5 4.8 1.3 2.6.8 9.2 2.7 14.7 4.3zm186.1 6.7c-.3 6.4-.8 11.9-1 12.3-.5.8-33.5.5-34.3-.3-.7-.7-.6-21.3.1-22.4.2-.4 8.4-.9 18.1-1l17.8-.3-.7 11.7zm18.4-10.2c6.3.3 12.4.8 13.5 1 1.1.2 4.9.7 8.5 1 13.2 1.4 58.7 10.2 57.7 11.2-.6.7-21.7 4.1-30.2 4.9-3.3.3-6.9.8-8 1-1.1.2-6.3.7-11.5 1.1-5.2.3-9.7.8-10 1-.3.1-8 .6-17 .9-9.1.4-16.8.9-17.2 1.2-1.1.6-1.2-8.2-.3-17.2.2-1.7.3-4 .4-5.2.1-1.3.6-2.1 1.4-1.8.6.2 6.4.6 12.7.9zm-344.4 2.1c.9 3.7 0 4-1.3.5-.6-1.7-.7-3-.2-3 .5 0 1.1 1.1 1.5 2.5zm286.5-.3c.1 2.8.1 10.7 0 16.6l-.1 4.4-11.2-.6c-6.2-.4-13.1-.9-15.3-1.1-2.2-.2-7.1-.7-11-1-3.8-.4-8.3-.8-10-1-1.6-.3-5-.7-7.5-.9-15.1-1.7-16.7-2.1-17.3-5.3-.3-1.6-.5-2.9-.4-3 .1 0 3.8-.9 8.2-1.8 4.4-.9 8.9-1.9 10-2.1 5.6-1.2 29-4.4 36.5-5 4.7-.4 8.6-.7 8.8-.9.1-.1 2.2-.3 4.7-.3 4-.2 4.5 0 4.6 2zm289.3 3.3c4.8 5.9 14.1 20.3 13.5 20.9-.2.2-5.1 3.3-10.9 6.8-11.4 7-28.6 16-39 20.3-3.6 1.5-8 3.4-9.9 4.2-3.2 1.4-3.1 1.2 3-6.2 9.8-11.7 22.6-29 30.4-40.8 3.9-5.9 7.3-10.7 7.7-10.7.4 0 2.7 2.5 5.2 5.5zm-558.2 12c4.1 3.3 8.7 6.9 10.2 8l2.8 2-2.3 7c-1.2 3.9-2.4 7.7-2.6 8.5-.5 1.9-2.3-.2-11.9-14.7-6.2-9.5-9.2-16.1-9.4-20.7 0-.5 1.3.2 2.9 1.5 1.6 1.3 6.2 5.1 10.3 8.4zm444.9-4.8c.1 1.6.2 4.3.3 6.1.1 1.8-.1 3.5-.4 3.7-.7.4-16.5-5.7-17.5-6.7-1.3-1.2 8.7-4.6 16.8-5.7.4-.1.7 1.1.8 2.6zm-251.6 2.4c-.5.7-1.3.6-7-.7l-3-.6 4-1.3c3.4-1 4.2-1 5.2.3.7.8 1 1.8.8 2.3zm-12 2.3c5.5.8 9.6 1.5 12 2.1 1.5.4 3.4 4.1 7.9 15.7 3.3 8.4 6.3 16 6.8 16.8 3.2 6 12.6 28.5 12.2 29.1-.3.5-1.2.9-1.9.9-.8 0-6.1 1.6-11.8 3.5-5.7 1.9-11.5 3.2-12.8 3-13.6-2.3-20.8-3.6-22.9-4-1.4-.3-5-1-8-1.5-9.6-1.9-34.5-8-35.5-8.8-.6-.4-4.2-4.3-8-8.7-3.9-4.4-7.2-8.2-7.6-8.5-2.4-2.2-6.1-8.3-5.3-8.8 7.2-5 21.2-13 29.5-17.1 12.6-6.1 36.6-15 39.4-14.6 1.1.2 3.8.6 6 .9zm239.3.6c1.9 1-12.6 29.1-29.5 57.1l-6.4 10.7-6.2-1.9c-7.4-2.2-26.4-6.5-32.7-7.4-2.5-.3-5.2-.8-6-1-.8-.2-4.4-.7-8-1-3.6-.3-8.1-.8-10-1-1.9-.2-5.9-.5-8.8-.6l-5.3-.3.6-5c.2-2.8.7-8.5.9-12.6 1.6-24 1.8-27.5 2-27.7.2-.2 4.7-.5 10.2-.8 16.9-.8 34.3-2.1 41.9-3 2.2-.2 6.7-.7 10-1 3.3-.3 7.8-.9 10-1.2 2.2-.4 4.9-.8 6-.9 10-1.2 13.1-1.6 13.6-1.9.3-.2 2.8-.7 5.5-1.1 2.7-.3 5.1-.8 5.3-1 .5-.4 5.1.6 6.9 1.6zm-205.9 4.4c2.4.3 7.8.9 12 1.2 4.2.3 8.7.7 10 .9 2 .4 20.1 1.5 28.6 1.9l3 .1.3 23c.1 12.6-.1 23.2-.5 23.6-.5.4-4.3 1-8.6 1.3-4.3.4-13.8 1.7-21 3.1-7.3 1.3-13.5 2.1-14 1.6-2-2-24.7-55.2-24.7-57.9 0-.5 2.2-.6 5.3-.1 2.8.4 7.2 1 9.6 1.3zm221.7 1.3l9.6 3.7-.4 25.3c-.3 13.9-.7 25.6-1 25.9-.6.6-14.6 4-19.9 4.8-2 .3-4.2.8-5 1-.8.3-3 .7-4.9 1-1.9.3-4.6.8-6 1-1.4.3-4.3.7-6.4 1.1-2.1.3-5 .8-6.3 1.1-1.3.4-3.7.1-5.3-.6l-2.9-1.2 2.8-4.2c5.2-7.6 17.8-30 26.1-46.4 4.6-8.9 8.7-16.2 9.2-16.2.4 0 5.1 1.7 10.4 3.7zm171.9 11.4c-5.2 10.5-11.2 19.3-17.7 26-2.3 2.5-3.6 3.6-2.6 2.5 3.7-4.7 18.5-27.5 21.3-32.8 4.8-9.3 4-5.8-1 4.3zm-29.3-6c-.4 2.6-.6 2.9-1.4 1.5-1-1.8-.4-4.6 1-4.6.5 0 .6 1.4.4 3.1zm-271.7 1.6c-.4 3.9-1 12.8-2.1 30.8-.3 5.5-.7 10.2-1 10.4-.2.2-7.3.5-15.8.7-11.3.2-15.5 0-15.8-.9-.4-1-.2-43.5.1-44.5.1-.1 7.9-.2 17.5-.2h17.5l-.4 3.7zm-307.8 8.8l7 10 .1 9.8c0 5.4-.4 9.5-.9 9.2-1.9-1.2-8.7-19.1-12.7-33.4-1.2-4.1-1.8-7-1.3-6.5.4.5 3.9 5.4 7.8 10.9zm463.3-3.8c11.2 6.1 24.3 15 31.4 21.5l5.8 5.3-12.8 4.3c-20.6 6.7-37.7 11.3-38.4 10.2-.3-.5-.4-3.3-.1-6.2.4-2.9.6-13.5.6-23.4v-18.2l2.5 1c1.4.5 6.3 3 11 5.5zm-435.3.9c12.8 7.8 29.7 16.4 44.3 22.4 5.8 2.4 10.6 4.5 10.8 4.6.2.1-2 3.2-4.8 6.9s-6.4 9.4-8.1 12.7c-3.1 6.1-7.1 17.8-6.1 17.8.3 0 .2.3-.1.6-2.5 2.5-52.7-49-52.7-54.1 0-1.7 4.9-17.5 5.5-17.5.2 0 5.2 3 11.2 6.6zm547.8-1.5c1.6 4.8 1.6 5.6 0 13.3-2.1 9.9-4.7 18.5-8.7 29.3l-3 8.2-10.7 7c-5.9 3.8-14.2 8.8-18.4 11.1l-7.7 4.2v-2.9c0-8.3-6.7-23.8-15-34.8-3.9-5.2-4.8-7-3.8-7.6.7-.5 1.8-.9 2.3-.9 4.4 0 45.8-20.8 58-29.2 2.2-1.5 4.3-2.8 4.7-2.8.3 0 1.4 2.3 2.3 5.1zM166.8 524c4.4 5.2 7.8 9.7 7.7 9.9-.2.1-3.9-.9-8.3-2.3l-7.9-2.7-.2-5.4c-.1-3-.4-6.4-.6-7.5-.7-3.4.9-2.1 9.3 8zm467.9-2c-.1 8-.1 8.1-4.4 13.1-2.4 2.8-4.3 4.8-4.3 4.5 0-.4 1.4-4.8 3-9.8 1.7-5 3-9.7 3-10.5 0-1.4 1.8-5.3 2.4-5.3.2 0 .3 3.6.3 8zm-480.4.1l.4 5.6-4.9-1.5-4.8-1.6 4.2-4.3c2.3-2.3 4.3-4.1 4.4-4 .1.1.4 2.7.7 5.8zM69 520.2c6.1 8.2 27.9 30.6 40.8 41.7 4.5 3.9 7.6 7.1 6.9 7.1-5 0-48.2-29.2-50.2-33.9-1-2.6-1.8-18.1-.8-18.1.5 0 2 1.5 3.3 3.2zm-10.3 15.3c2.1 4.3 2.1 4.7.4 2.5-1.2-1.4-2.6-3.7-3.3-5.3-.7-1.5-1.6-2.7-1.9-2.7-.4 0-1-.8-1.3-1.7-1.5-3.8 3.7 2.3 6.1 7.2zm96.5-.5c.4 1.9.9 5.5 1.2 8 1.3 11.7 1.9 15.3 4.2 26.5 1.3 6.6 2.9 13.5 3.5 15.3.6 1.8.9 3.6.7 4.1-.3.9-14.1-3.7-22.8-7.6-1.9-.8-7.4-4.4-12.1-8l-8.6-6.5.8-3.8c2.3-10.2 8.6-22.4 16.2-31.4l3.7-4.5 6.2 2.2c5.7 2 6.3 2.5 7 5.7zm487.5.3c-2.9 4.5-6.2 9.6-7.4 11.2l-2.2 3 1.8-5.8c1.3-4.4 3-7.1 7.1-11.2 3-3 5.5-5.5 5.7-5.5.1 0-2.1 3.7-5 8.3zm-79.2-1.6c6.3 8.1 11.2 17.8 13.5 26.9 1.1 4.3 2 8.5 2 9.4 0 2.8-25.7 14-51.5 22.5-19.3 6.3-17.2 6.5-23-2.3-2.7-4.2-5.1-7.9-5.3-8.3-.1-.3 4.1-4.2 9.5-8.5 15.2-12.2 26.2-22.3 41.6-38.2 3.9-3.9 7.4-7.2 7.9-7.2.4 0 2.8 2.6 5.3 5.7zm-18.5 1.9c-5.9 6-13.7 13.6-20.4 19.7-5.3 4.9-23.5 19.7-24.2 19.7-.5 0-.2-3 1-10.5.2-1.1.7-6.2 1.1-11.2l.7-9.3 3.7-1c12.5-3.5 28.6-8.3 34.6-10.3 3.9-1.3 7.4-2.5 8-2.6.5 0-1.5 2.4-4.5 5.5zm-370.8 2.1c5 1.4 6.8 2.7 14.1 10.2 4.6 4.7 12 12 16.4 16.2l8 7.6-6.6 6c-3.6 3.3-8.6 9.2-11.1 13.1-5.1 8-3.9 7.7-17.5 3.3l-8-2.6-2.7-11c-1.5-6.1-2.9-12.1-3.2-13.5-.2-1.4-.9-5.2-1.4-8.5-1.1-6-1.6-9.2-2.8-19.7l-.6-5.8 4.8 1.5c2.7.9 7.5 2.3 10.6 3.2zm184.5 8c-.3 4.3-.6 8.8-.6 10-.1 2.3-.2 2.3-15.1 2.3-8.2 0-15-.3-15.1-.8-.5-3.9-.4-16 .2-17.3.7-1.3 3.2-1.6 15.9-1.8l15.2-.2-.5 7.8zm22.4-6.2c4.2.3 8.7.8 10 1 1.3.2 6.7 1.1 11.9 2 9.8 1.7 26.8 5.7 31.6 7.5 1.6.7 2.4 1.4 1.8 2-1 .9-3.5 1.3-20.9 3s-20 1.9-37.6 2.5l-16.6.7.3-3.9c.2-2.1.6-5.8.8-8.3.2-2.5.5-5.3.5-6.3.1-1.6.8-1.7 5.4-1.3 2.8.3 8.6.8 12.8 1.1zm-57.1 8.9v9.4l-6.2-.3c-17.9-1.1-25.5-1.6-27.3-2-1.1-.2-2.6-.4-3.2-.4-1.3-.1-3.5-3.8-4.7-7.7-.6-1.9-.1-2.2 5.1-3.3 9.6-1.8 17.5-3.1 23.3-3.8 3-.3 5.6-.6 5.7-.7.1-.1 1.8-.3 3.8-.4l3.5-.3v9.5zm-248-.3c6.5 5.2 22 15.2 31.9 20.6 4.7 2.5 8.7 4.7 8.9 4.9.2.1.5 3.4.8 7.4.4 7.1 4.2 20.4 7 24.8 1.5 2.3 1.5 2.3-1.3.9-5.2-2.7-21.7-15.9-27.6-22.1C84.6 573 74.2 557.9 70 547.1c-2.4-6.1-2.8-6.2 6 1zm129.5-2.3c7.2 1.7 14.4 3.3 16 3.6 13.3 2.3 21.2 3.7 22 4 .6.1-1.7 1.5-5 3.1-3.3 1.5-9.7 5-14.1 7.6-4.5 2.7-8.6 4.9-9 4.9-.5 0-7-6.1-14.4-13.6-10.1-10.2-12.9-13.5-11-13.1 1.4.2 8.4 1.8 15.5 3.5zm424.9.4c-3.9 11-12.5 24-24.4 36.8-4.5 4.8-4.5 4.4.7-3.7 1.8-2.8 6.2-10.9 9.8-18 5.2-10.2 7.4-13.4 10.8-16 2.3-1.7 4.3-3.2 4.4-3.2.1-.1-.5 1.8-1.3 4.1zm-131 1.9c-.2 4-1.5 16-2.4 22.9-.5 3.6-1 6.9-1 7.3 0 .4-3-1.7-6.7-4.6-7.8-6.3-17-12.1-26.9-16.8-5.7-2.8-6.5-3.5-4.4-3.7 1.4-.2 8.1-1.5 15-2.8 15.5-3.1 16.5-3.3 20.9-4.3 4.8-1.2 5.6-.9 5.5 2zm-219.3 2.1c.7 1.8 1.5 3.7 1.7 4.2.2.4-.9.6-2.4.3-1.6-.3-5.4-.9-8.4-1.2-11.6-1.2-12-1.7-3.8-4.3 9.5-3 11.4-2.8 12.9 1zm-15.2 6.2c.3.2 3.8.7 7.7 1 9.2.9 11.8 1.4 12.2 2.5.6 1.8 17.1 30.9 21 37.1 2.3 3.5 3.8 6.8 3.4 7.1-.4.4-3.2 1.4-6.2 2.4s-9 3.5-13.2 5.5c-9.7 4.7-11.6 4.4-23.7-3.6-16.1-10.7-47.1-34.6-47.1-36.3 0-1.2 13.8-9.2 22.7-13.2 8.3-3.7 9.2-3.9 15.7-3.4 3.8.3 7.2.8 7.5.9zm196.1 3.8c12.9 6.3 31 18.5 31 21 0 1.5-26.1 19-41 27.5-5.4 3.1-11.3 4.4-27 6-3 .3-5.7.7-5.9.9-.2.1-3.8-1.4-8-3.5s-8.2-4-9-4.3c-.9-.2.4-2.5 4-6.8 3-3.6 5.6-6.7 6-7 1.1-.9 21.6-28.9 24.5-33.5 3.3-5.1 4.1-5.5 10.9-5.1 3.5.2 7.8 1.6 14.5 4.8zm-27.9-2.4c-3 5.7-20.5 29-30.5 40.7-3.3 3.8-6.1 7.1-6.2 7.3-.1.1-3.5-.6-7.5-1.7-7-1.9-19-3.9-26.9-4.4l-3.5-.3.1-4.9c.2-11.2 2.4-32.5 3.3-32.6.3 0 3.8-.2 7.6-.4 14.7-.7 31.2-1.6 35.5-2 2.5-.2 8.1-.7 12.4-1 6.4-.5 14.7-1.7 16.4-2.4.1-.1-.2.7-.7 1.7zm175.8 10.3c-6.2 11.2-13.8 22.7-18.5 27.8-4.5 5.1-16 13.2-14.9 10.5 2.4-5.9 6.5-18.2 6.5-19.9 0-1.2 1.7-3.2 4.1-4.9 5.3-3.7 21.7-17.6 24.8-21 1.4-1.4 2.6-2.4 2.8-2.2.2.2-1.9 4.6-4.8 9.7zm-298.4-7.5c7.2.3 13.2.8 13.4.9.1.2.4 9.2.6 19.9.3 21.6.9 19.8-6.7 21.1-3.7.7-3.7.7-8.3-6.5-6.2-9.7-20.5-34.9-20.5-36.1 0-.7 1.7-.8 4.3-.5 2.3.3 10.1.8 17.2 1.2zm46.6 6.5c-.1 2.8-.4 5.9-.6 6.8-.1.9-.6 5.9-1 11.1-1.1 13-1.1 12.9-1.6 13.4-.2.2-5.6.7-11.9 1.1-6.3.3-11.9.7-12.5.8-1 .2-2.1-35.2-1.2-37.7.3-.8 4.5-1.1 14.8-.9l14.3.2-.3 5.2zm244.3-2.3c-10.2 8.4-17.7 14.2-18.3 14.2-.4 0-.6-1.2-.3-2.8.3-2.2 2-3.6 9.5-7.8 9.5-5.3 12.7-6.6 9.1-3.6zm-380.6 13.9c6.3 5.9 32.6 25.8 44.2 33.4l2.5 1.7-2.5-.4c-4.5-.7-32.4-5.4-35-5.9-12.8-2.6-34.8-8-35.6-8.8-.9-.9 7.6-11.9 13.8-18 7.7-7.5 6.7-7.3 12.6-2zm-91.1 1c4.3 2.1 11.9 6.5 16.9 9.8 5 3.3 12.3 7.8 16.2 10 6.8 3.8 7.2 4.3 9.3 10 1.2 3.3 4.5 10.6 7.4 16.2 2.8 5.7 4.8 10.3 4.4 10.3-3.8 0-44.9-18.8-50-22.8-3.3-2.7-9.5-15.2-11.4-23.4-1.4-6-2-13.8-1.1-13.8.3 0 4 1.7 8.3 3.7zm449.3-.3c0 3.1-.6 3.8-8.7 9.4-9.8 6.6-31.3 19.1-41.3 23.9-9.5 4.5-15.4 7.3-15.5 7.3v-3.3c.1-3.2-.6-7.9-1.9-12.8-.7-2.4-.5-2.6 8.6-5.3 17.4-5.2 36.3-12.3 49.7-18.8 4.2-2 7.9-3.7 8.4-3.7.4-.1.7 1.4.7 3.3zm-84.3 7.3c-.3 1-1.1 4.9-1.8 8.7-1.1 5.5-1.7 7-3.5 7.6-2.9 1.1-31.7 7.1-32.1 6.6-.2-.1 4.5-3.3 10.5-7 5.9-3.6 14.1-9.1 18.2-12.1 8.2-5.9 9.4-6.4 8.7-3.8zm8.2 7.3l3 4.9-4.2 1.1c-2.3.6-4.7 1.3-5.3 1.5-.8.2-.9-1-.3-4.3 2-10.9 2.1-10.9 6.8-3.2zm74-1.4c-1.8 6.3-8 18.3-10.6 20.4-4.6 3.6-23.8 12.8-40.5 19.4-9.1 3.6-16.8 6.6-17 6.6-.2 0 .7-3.4 2.1-7.6 2.4-7.3 2.7-7.7 7-9.6 15.5-6.6 42.4-21.5 54.5-30.2 2.8-1.9 5.1-3.4 5.3-3.3.1.2-.2 2.1-.8 4.3zm-414.1.5c2.4.7 4.2 1.9 4.5 3 .7 2.4.7 2.4-5.5-1.2-5.7-3.4-7.3-4.6-4.7-3.6 1 .3 3.5 1.1 5.7 1.8zm18.5 5.9c7.5 2.3 7.8 2.5 7.2 5-1.1 4.2-1.9 4.3-8.8.9-5-2.5-6.9-4-7.7-6.2-.7-2.2-.7-2.8.3-2.5.6.3 4.7 1.5 9 2.8zm28.3 7.6c8.2 2 17.2 4 19.9 4.4 2.8.5 5.9 1.1 7 1.4 2.9.6 27.2 4.4 33 5.2 7.8 1 8.1 1.5 4 6-2 2.1-4.7 6.2-6.1 9l-2.4 5.1-11.3-3.2c-28-8.1-62.7-22.2-62.7-25.4 0-3.1 1.3-6.1 2.5-6.1.7 0 8 1.6 16.1 3.6zm143.8.6c-.5 4.8-1.1 9.9-1.3 11 0 .5-5.3.8-11.6.8H329v-6.5c0-3.6 0-6.8-.1-7.3-.1-1.2 4.1-1.8 14.8-2.1l10.1-.2-.4 4.3zm28.6-1.1c5.2 1.2 9.8 2.4 10.2 2.7.4.4-1.1 2.7-3.3 5.1l-4 4.3-14.4.5-14.5.5.4-4.8c.2-2.7.4-6.4.5-8.2l.1-3.4 7.8.7c4.2.3 12 1.5 17.2 2.6zm126.9 1.9c1.8 8.2 1.4 12.7-1 14.1-2.7 1.4-20.2 7.9-20.5 7.6-.2-.1 1.4-5.6 3.5-12.2l3.7-11.9 4.5-1.2c8.1-2.2 8.6-2 9.8 3.6zm-183.8 1.2c0 2.4.2 5.3.3 6.5.2 1.3-.1 2.3-.5 2.3-.9 0-7.9-10-7.9-11.2 0-.6 2.7-1.4 6.3-1.7 1.4-.1 1.7.7 1.8 4.1zm-143.7.6l5 2.7.2 6.2c.3 6.6 1.2 10.4 3.9 16.8 1.5 3.5 1.5 3.8.1 2.6-1.5-1.3-15.6-28.7-15.6-30.4 0-1.2 1.3-.8 6.4 2.1zm308-.1c-.3 1.6-2 7.1-3.8 12.3l-3.1 9.4-5.4 1.9c-6 2-21.2 5.9-33.8 8.7l-8.3 1.8v-2.1c0-3.7-1.9-9.3-4.5-13.1l-2.4-3.6 4.9-2.5c2.8-1.4 6.7-3.5 8.7-4.6 3.4-1.9 11-3.9 20.6-5.3 4.1-.7 17.3-3.4 22.2-4.6 5.2-1.4 5.6-1.2 4.9 1.7zm-173.6 2.5c3.9 5.9 4.7 7.2 3.6 6.6-.8-.5-19.3-2-26.1-2.1-3.1-.1-2.9-1.5.5-2.9 9.2-3.7 15-5.7 16.9-5.7 1.5-.1 3.1 1.2 5.1 4.1zm90.8 2.1c1.6.9 2.7 1.7 2.4 1.7-.5.2-3.9.5-13.6 1.4l-5.1.5 3.5-3.9c3.4-3.8 3.5-3.9 6.6-2.6 1.8.7 4.6 2.1 6.2 2.9zm165.9 1.1c-4.9 4.3-7.2 5.3-4.4 2 1.3-1.6 7.9-6.2 8.9-6.3.3 0-1.7 1.9-4.5 4.3zm-360 8.7c11.2 4.5 32.6 11.8 42.1 14.4l10.2 2.8.5 4.8c.3 2.6 1.3 6.2 2.2 7.8 1.8 3.5 1.5 3.6-5 2.2-2.2-.5-5.8-1.2-8-1.5-8.5-1.2-28.6-5.8-42.7-9.7l-14.8-4.1-2.6-5.5c-2.9-6.3-3.3-7.7-4.1-15.6l-.6-5.7 8.9 4.1c4.9 2.2 11.2 5 13.9 6zm218.1-4.4c-3.3 1.6-5.5 2.2-6.4 1.7-2.6-1.7-1.7-2.9 2.8-3.5 8.1-1.1 8.6-.8 3.6 1.8zm-134.6.7c4.1.3 11.8.8 17 1.2 6.1.4 10 1.1 11 2 1.5 1.5 3.1 14.7 1.9 16.5-.5.9-38.9-17.7-41.2-20-.7-.7-.3-.9 1.4-.7 1.3.3 5.8.7 9.9 1zm123.3 1.4c1.1 1.2 1.9 2.3 1.6 2.6-2.5 2.4-49.1 20-58.4 22l-3 .6 4-3.6c19.2-17.7 22.9-21 24.3-21.5.9-.4 6.6-.9 12.7-1.3 6-.4 11.1-.9 11.3-1.1 1-.9 5.7.5 7.5 2.3zM166 633c6.3 2.6 13.9 5.6 16.8 6.6 3.4 1.2 6.1 2.9 7.4 4.7l2.1 2.9-2.4-.7c-16.8-5.3-50.9-22.6-50.9-25.9 0-.2 3.5 1.5 7.8 3.7 4.2 2.1 12.9 6 19.2 8.7zm394.1-11.1c-1.3 2.3-9.7 10-16.6 15.1-9.8 7.3-26.5 15-44.4 20.4l-8.3 2.5 5.4-5.7c3-3.1 6.1-6.7 6.9-7.8.9-1.4 6.4-4 15.4-7.4 15.1-5.6 37.2-15.3 40.2-17.5 2.4-1.9 2.6-1.8 1.4.4zm-267.7 6.5c6.5 3.5 16.9 8.8 23.2 11.7 14 6.5 15 8.5 3.7 7.5-4.2-.4-7.9-.8-8.2-1-.3-.2-2.8-.7-5.6-1-6.8-.7-18.8-2.9-34.3-6.3-2.4-.6-2.4-2 .4-7.4 1-2 8-9.9 8.8-9.9.1 0 5.5 2.9 12 6.4zm59.2-3.4c-.3 1.4-.8 5-1.1 8-.3 3-.7 6.4-1 7.5-.2 1.1-.4 3-.4 4.3-.1 3.2-1 2.7-6.9-4.2-8.2-9.4-13.4-16.4-12.8-17.4.3-.5 5.5-.8 11.6-.8l11 .1-.4 2.5zm22.9 3.6c-12 11.2-24 20.7-22.2 17.6.3-.4.7-3.6 1.1-7.2 1-10.7 1.8-15.5 2.6-16 .5-.3 6.4-.6 13.2-.7l12.3-.3-7 6.6zm133.9-.4c-.3 1.3-1.7 4.6-3 7.4l-2.4 5.2-11.2 3.1c-6.1 1.7-11.3 2.9-11.5 2.8-.2-.2.9-3 2.3-6.3l2.5-5.9 11.2-4.2c6.2-2.3 11.6-4.2 12-4.2.5-.1.5.9.1 2.1zm-82.2.5c3.9 4.5 6.8 15 4.3 15.4-11.9 2.3-16.2 3-22.5 3.5-4.1.3-8.6.8-10 1-1.4.2-9.5.6-18 1l-15.5.5 15.5-5.4c14.9-5.2 32.6-12.2 40-15.9 4.4-2.2 4.4-2.2 6.2-.1zm-90.7 9.4c8.6 10.4 8.6 10.1 1.2 7.2l-6.5-2.6-.4-5.3c-.1-3-.1-5.4.2-5.3.3 0 2.8 2.7 5.5 6zm-151.1 10c10.4 3.6 11.4 4.2 18.6 11.2l7.6 7.4-5.7-2.3c-12-4.9-40.4-20.8-47-26.4-1.5-1.2.9-.5 6.6 2.1 5 2.3 13.9 5.9 19.9 8zm293.2-5.2c-1.4 2.7-3 5.2-3.6 5.6-.5.3-6.5 1.7-13.2 3.1-15 3.2-14.3 3-19.8 3.8-2.5.4-5.7.9-7.3 1.2l-2.7.6 1.4-3.4c.8-1.8 1.7-4 1.9-4.9.4-1.1 3.8-2.2 11.3-3.8 6-1.3 16.1-3.7 22.4-5.5 6.3-1.7 11.6-2.9 11.8-2.5.2.4-.8 3-2.2 5.8zm-195.1 2.4c6.6 1.4 14.4 2.8 17.4 3.2 3 .4 6.3.9 7.5 1.1 1.2.2 5 .7 8.6 1 3.6.4 7.2.8 8 .9.8.2 1.8.4 2.3.4.4.1.7.8.7 1.6 0 .9-1 1.5-2.5 1.6-1.4.1-2.8.2-3.2.3-.5.1-3.7.6-7.3 1-3.6.5-7.4 1-8.5 1.3-4 .8-25.1 1.2-28.5.5-2.9-.7-3.9-1.6-6.1-6-1.4-2.8-2.5-6.2-2.3-7.4.3-3 .3-3 1.2-2.4.4.2 6.1 1.6 12.7 2.9zm-84.4 2.4c1.3 1.6 1.2 1.7-.3.4-1.7-1.3-2.2-2.1-1.4-2.1.2 0 1 .8 1.7 1.7zm9.1-.3c6.8 2.2 32.8 8.4 38.6 9.2 2.8.3 5.2 1.1 5.2 1.6s-.3.7-.7.5c-.5-.3-4-.8-7.9-1.1-3.9-.4-8-.8-9-1-1.1-.2-3.9-.7-6.4-1.1-15.3-2.4-25-5.8-25-8.7 0-1.1.2-1 5.2.6zm288.7 2.2c-8.3 8.7-12.9 11.7-19.5 12.9l-6.3 1.2 2.2-3.8c4.4-7.8 5.6-8.7 15.7-11.3 5.2-1.4 9.9-2.5 10.4-2.5.6-.1-.6 1.5-2.5 3.5zM334 648c1.2.8 1.1 1-.7 1-1.3 0-2.3-.5-2.3-1 0-1.3 1.1-1.3 3 0zm95.8 2.7c-2.8 6.4-3.6 7-10.1 7.8-3.4.4-7.3.9-8.6 1-15 2-20.4 1.7-34.3-1.6-7.6-1.8-13.8-3.5-13.8-3.9 0-.3 3.7-.6 8.3-.6 14.1 0 35.6-1.7 48.3-3.8 11.9-2 11.6-2.1 10.2 1.1zm-96.4 2.5c-.3.4-.9.8-1.5.8-.5 0-.9-.4-.9-.8 0-.5.7-.9 1.5-.9s1.2.4.9.9zm138 1c-4 6.7-5.9 9-8.2 9.9-3.1 1.2-36.3 2.1-38.1 1-1.8-1.1 1.8-3.9 5.9-4.6 1.9-.3 8.5-1.4 14.6-2.5s12.6-2.2 14.5-2.5c1.9-.3 4.8-1 6.4-1.4 4.4-1.3 5.7-1.3 4.9.1zm-260.5 6.7c.9.8 5 3.7 9.1 6.4 8.7 5.6 9.9 6.6 5 4.2-5.5-2.8-15.2-10-19-14.2l-3.5-3.8 3.4 3c1.9 1.7 4.2 3.6 5 4.4zm17.1-1.6c1.9.3 5.8.9 8.5 1.2 2.8.3 6.4.8 8 1 1.7.2 9.1.7 16.5 1.1l13.5.7 4.5 3.6c2.5 2.1 7.5 5.3 11.2 7.2 6 3 6.5 3.5 4.5 4.2-3.9 1.6-22.4 4.5-25.9 4.1-11.7-1.3-17.9-3-29.8-8.6-7.1-3.3-28-16.2-28-17.2 0-.2 3 .2 6.8.9 3.7.7 8.3 1.5 10.2 1.8zm111-2.6c0 .5-1.7 1.8-3.9 3l-3.8 2.2.1-2.2c.1-1.4 1-2.4 2.6-2.8 3.5-1 5-1 5-.2zm8.2 2.4c-.5 3.5-1.7 4.2-6.4 3.7l-3.3-.3 4.5-3.2c2.5-1.7 4.8-3.2 5.1-3.2.3-.1.4 1.3.1 3zm7.8.4l3.4 3.5h-4.1c-3.4 0-4.1-.3-3.8-1.8.2-.9.4-2.5.4-3.5.1-2.3.2-2.2 4.1 1.8zm14.3.1c3.7.9 6.7 1.9 6.7 2.3 0 .3-2.6.6-5.8.6-5 0-6.4-.4-9.3-2.8-3.1-2.6-3.2-2.8-.9-2.2 1.4.3 5.5 1.3 9.3 2.1zm-41.3.4c0 2.2-.4 2.3-7 2-2.5-.2-5.7-.3-7.2-.3-3.3-.1-3.8-1.7-.5-1.8 3.4 0 11.1-1.1 11.6-1.5 1.2-1.1 3.1-.1 3.1 1.6zm168.9 3.4c-8.3 3.7-22.1 8.7-22.6 8.2-1.1-1.1 9.7-6.4 17.7-8.7 12.8-3.6 13.9-3.5 4.9.5zm-77 .1c-1.1 1.2-2.6 1.3-6.4.8l-5-.8 4.5-.6c8.3-1.1 8.6-1.1 6.9.6zm-112.4 1.2c4.4.3 9.7.7 11.7.7 2.1.1 3.8.4 3.8.8 0 1.2-15.3 8-19 8.5-2.7.4-5.3-.4-11.5-3.6-4.4-2.2-9.1-5-10.5-6.2l-2.5-2 10 .6c5.5.3 13.6.9 18 1.2zm95.3 1.7c1.7.3 4.6.8 6.3 1 1.7.3 3.3.6 3.5.9.6.6-10.2 5.3-18.5 8.2l-6.9 2.3-3.9-2.2c-4.1-2.4-9.5-6-12.7-8.6-1.7-1.4-1.4-1.5 3.5-2.1 6.2-.6 23.8-.3 28.7.5zm-57.4.4c.2.4-.3 4.2-1.1 8.5l-1.6 7.8-3.6-.5c-2-.3-3.9-.5-4.3-.6-.7 0-1.2-2.3-2.3-11.2l-.6-4.7h6.5c3.6 0 6.8.3 7 .7zm20.7 2.2c2 1.6 6.2 4.6 9.3 6.8 5.6 4 5.6 4 2.9 4.6-6.5 1.3-9.4 1.6-20 2.2-9.6.6-11.3.5-11.3-.8 0-1.4 1.9-12.1 2.5-14.3.1-.6 3.1-1.1 6.6-1.2 5.7-.2 6.8.1 10 2.7zm105.9-1c-2.4 1.7-8.9 5-9.7 5-2.2 0 5.8-5.6 8.3-5.8 2.2-.1 2.6 0 1.4.8zm-142.9 2.7c0 1.6.2 4.7.5 6.9l.6 4.2-5.4-.9c-8.7-1.5-14.8-3.1-14.8-3.8 0-.3 2.6-1.7 5.9-3 3.2-1.3 7.2-3.2 8.7-4.2 3.8-2.5 4.4-2.4 4.5.8zm110.4-1.7c8.8 0 17.3-.2 18.8-.5 2.8-.6 2.8-.5 1.1 1.7-4.4 5.8-9.3 8.6-18.7 10.7-16.3 3.6-32.1 6.1-35.5 5.5-4.4-.8-13.8-5.2-12.2-5.7 8.1-2.7 16.6-6.3 21.1-9.1 3-1.8 6.3-3.1 7.4-2.9 1.1.2 9.2.3 18 .3zm-126.9 12.9c8.4 2.1 12.5 2.9 16 3 1.5.1 2.3.9 2.7 2.6l.4 2.6-8.6-.6c-18.2-1.3-37.1-3.4-38.5-4.2-.9-.6 14.2-4.9 18-5.2 1.2 0 5.7.8 10 1.8zm79.5 3.5c5 2.3 5.2 2.5 2.4 2.7-1.6.1-3.9.3-5 .4-4.4.6-22.7 1.5-33 1.7-10.3.2-11 .1-11-1.7 0-1.7.8-1.9 7-2.1 8.8-.1 20.9-1.3 25.5-2.4 5.9-1.4 8.5-1.1 14.1 1.4zm-50.8 1.2c1.3 1.4-.7 3.4-3.4 3.4-2.2 0-2.9-.5-2.9-2s.7-2 2.8-2c1.6 0 3.1.3 3.5.6zm-39.3 4.8c7.6.7 19.6 1.7 25.3 2 2.6.2 5.3.8 5.9 1.4.8.8-.4.9-4.3.6-3-.2-7.4-.6-9.9-.8-11-1-23.6-2.9-24.5-3.8-.6-.6-.5-.7.5-.4.8.2 4 .7 7 1zm103.4-.6c.2.4-.5.9-1.7 1-1.3.1-7.2.9-13.2 1.7-13.4 2-49.5 3.2-48 1.7.6-.6 9.2-1.3 21-1.6 11-.3 20.9-.8 22-1 1.1-.2 5.6-.7 10-1.1 4.4-.4 8.2-.9 8.4-1.1.6-.6.9-.5 1.5.4zm-66.4 3.6c0 .3-.4.8-1 1.1-.5.3-1 .1-1-.4 0-.6.5-1.1 1-1.1.6 0 1 .2 1 .4z"/></svg>