<svg xmlns="http://www.w3.org/2000/svg" viewBox="0 0 498.14 498.14"><g stroke="#000" fill="none"><path d="M264.035 249.593a14.974 247.83 2.002 11-29.93-1.046 14.974 247.83 2.002 1129.93 1.046z" stroke-width="2.4783"/><path d="M362.798 287.425a120.021 247.83 18.637 11-227.456-76.71 120.021 247.83 18.637 11227.456 76.71z" stroke-width="2.47829"/><path d="M383.772 387.16a192.91 247.832 45.711 11-269.408-276.183A192.91 247.832 45.711 11383.772 387.16z" stroke-width="2.47829"/><path d="M278.727 37.026a247.836 214.113 7.962 11-59.316 424.098 247.836 214.113 7.962 1159.316-424.098z" stroke-width="2.4783"/><path d="M392.015 143.107a247.837 177.942 53.451 11-285.898 211.932 247.837 177.942 53.451 11285.898-211.932z" stroke-width="2.4783"/><path d="M340.48 226.778a247.83 94.089 76.295 11-182.82 44.584 247.83 94.089 76.295 11182.82-44.584z" stroke-width="2.4783"/><g><path d="M308.38 457.46a59.31 29.658 0 11-118.618 0 59.31 29.658 0 11118.619 0z" stroke-width="2.4783"/><path d="M364.242 439.113a115.173 57.589 0 11-230.346 0 115.173 57.589 0 11230.346 0z" stroke-width="2.4783"/><path d="M413.411 409.72a164.341 82.173 0 11-328.672 0 164.341 82.173 0 11328.672 0z" stroke-width="2.4783"/><path d="M453.03 370.992a203.964 101.985 0 11-407.929 0 203.964 101.985 0 11407.928 0z" stroke-width="2.4783"/><path d="M480.796 325.179a231.726 115.865 0 11-463.442 0 231.726 115.865 0 11463.442 0z" stroke-width="2.4783"/><path d="M495.093 274.941a246.023 123.013 0 11-492.041 0 246.023 123.013 0 11492.041 0z" stroke-width="2.4783"/><path d="M495.093 223.199a246.023 123.013 0 11-492.041 0 246.023 123.013 0 11492.041 0z" stroke-width="2.4783"/><path d="M480.796 172.961a231.726 115.865 0 11-463.442 0 231.726 115.865 0 11463.442 0z" stroke-width="2.4783"/><path d="M453.03 127.148a203.964 101.985 0 11-407.929 0 203.964 101.985 0 11407.928 0z" stroke-width="2.4783"/><path d="M413.411 88.42a164.341 82.173 0 11-328.672 0 164.341 82.173 0 11328.672 0z" stroke-width="2.4783"/><path d="M364.242 59.027a115.173 57.589 0 11-230.346 0 115.173 57.589 0 11230.346 0z" stroke-width="2.4783"/><path d="M308.38 40.68a59.31 29.658 0 11-118.618 0 59.31 29.658 0 11118.619 0z" stroke-width="2.4783"/></g><path d="M496.9 249.07a247.83 247.83 0 11-495.66 0 247.83 247.83 0 11495.66 0z" stroke-width="2.4783"/></g></svg>